<svg width="2000px" height="890px"
 viewBox="0.00 0.00 1530.53 681.31" xmlns="http://www.w3.org/2000/svg" xmlns:xlink="http://www.w3.org/1999/xlink">
<g id="graph0" class="graph" transform="scale(1.0 1.0) rotate(0) translate(4 677.31)">
<title>ContextMapGraph</title>
<polygon fill="white" stroke="transparent" points="-4,4 -4,-677.31 1526.53,-677.31 1526.53,4 -4,4"/>
<!-- AccountsCancellations -->
<g id="node1" class="node">
<title>AccountsCancellations</title>
<polygon fill="none" stroke="black" stroke-width="2" points="183.89,-372.39 174.64,-371.05 165.66,-369.61 156.98,-368.08 148.65,-366.46 140.69,-364.76 133.14,-362.98 126.03,-361.14 119.39,-359.23 113.25,-357.27 107.62,-355.25 102.53,-353.19 98,-351.09 94.05,-348.96 90.67,-346.8 87.89,-344.62 85.71,-342.42 84.14,-340.22 83.16,-338.01 82.79,-335.8 83.01,-333.6 83.82,-331.42 85.21,-329.25 87.15,-327.1 89.64,-324.98 92.66,-322.89 96.19,-320.83 100.2,-318.82 104.66,-316.84 109.57,-314.92 114.87,-313.04 120.56,-311.22 126.6,-309.46 132.96,-307.76 139.62,-306.13 146.53,-304.56 153.68,-303.06 161.03,-301.64 168.55,-300.29 176.22,-299.02 184,-297.83 191.87,-296.73 199.81,-295.72 207.79,-294.79 215.79,-293.96 223.78,-293.22 231.74,-292.58 239.66,-292.03 247.52,-291.59 255.3,-291.25 262.99,-291.01 270.57,-290.88 278.03,-290.86 285.37,-290.94 292.56,-291.13 299.61,-291.44 306.51,-291.85 313.25,-292.38 319.83,-293.01 326.23,-293.76 332.47,-294.62 338.52,-295.58 344.4,-296.66 350.09,-297.84 355.59,-299.13 360.91,-300.52 366.03,-302.01 370.95,-303.6 375.67,-305.29 380.18,-307.06 384.48,-308.92 388.56,-310.87 392.41,-312.89 396.02,-314.98 399.4,-317.14 402.52,-319.36 405.38,-321.63 407.96,-323.96 410.26,-326.32 412.27,-328.72 413.97,-331.14 415.34,-333.58 416.39,-336.03 417.08,-338.49 417.42,-340.94 417.39,-343.38 416.97,-345.8 416.16,-348.19 414.94,-350.54 413.31,-352.84 411.25,-355.1 408.75,-357.29 405.82,-359.41 402.44,-361.46 398.62,-363.43 394.35,-365.31 389.63,-367.09 384.47,-368.77 378.87,-370.34 372.83,-371.8 366.38,-373.14 359.51,-374.36 352.25,-375.45 344.61,-376.42 336.62,-377.25 328.29,-377.95 319.64,-378.51 310.71,-378.94 301.52,-379.23 292.11,-379.38 282.5,-379.39 272.74,-379.27 262.85,-379.01 252.87,-378.62 242.84,-378.09 232.81,-377.44 222.8,-376.66 212.87,-375.77 203.04,-374.75 193.37,-373.62 183.89,-372.39"/>
<text text-anchor="middle" x="260.62" y="-329.99" font-family="sans-serif" font-size="16.00">AccountsCancellations</text>
</g>
<!-- Logins -->
<g id="node2" class="node">
<title>Logins</title>
<polygon fill="none" stroke="black" stroke-width="2" points="229.5,-182.59 230.12,-179.74 230.91,-176.92 231.89,-174.16 233.04,-171.45 234.37,-168.81 235.87,-166.25 237.54,-163.78 239.37,-161.41 241.36,-159.15 243.5,-157 245.79,-154.98 248.21,-153.09 250.77,-151.34 253.45,-149.73 256.25,-148.26 259.16,-146.95 262.17,-145.79 265.28,-144.78 268.47,-143.93 271.74,-143.23 275.08,-142.69 278.48,-142.31 281.92,-142.07 285.41,-141.99 288.93,-142.06 292.48,-142.26 296.04,-142.61 299.6,-143.09 303.15,-143.7 306.69,-144.43 310.21,-145.28 313.69,-146.23 317.13,-147.29 320.52,-148.45 323.85,-149.7 327.1,-151.04 330.28,-152.45 333.37,-153.93 336.37,-155.48 339.26,-157.09 342.04,-158.75 344.7,-160.45 347.24,-162.2 349.64,-163.98 351.91,-165.79 354.03,-167.63 355.99,-169.49 357.8,-171.37 359.45,-173.27 360.93,-175.17 362.24,-177.09 363.37,-179.01 364.33,-180.93 365.11,-182.86 365.7,-184.78 366.1,-186.71 366.32,-188.63 366.35,-190.55 366.2,-192.46 365.85,-194.36 365.32,-196.26 364.6,-198.15 363.7,-200.02 362.61,-201.89 361.35,-203.74 359.9,-205.57 358.29,-207.39 356.5,-209.19 354.55,-210.96 352.45,-212.71 350.19,-214.43 347.78,-216.12 345.23,-217.77 342.55,-219.38 339.74,-220.95 336.82,-222.46 333.78,-223.93 330.64,-225.33 327.41,-226.67 324.09,-227.94 320.7,-229.13 317.24,-230.24 313.73,-231.26 310.17,-232.19 306.58,-233.01 302.96,-233.73 299.32,-234.34 295.68,-234.83 292.04,-235.2 288.42,-235.44 284.83,-235.54 281.27,-235.51 277.76,-235.34 274.3,-235.03 270.91,-234.57 267.59,-233.96 264.36,-233.2 261.22,-232.29 258.19,-231.23 255.26,-230.02 252.46,-228.66 249.78,-227.16 247.24,-225.51 244.83,-223.73 242.58,-221.82 240.47,-219.78 238.53,-217.61 236.76,-215.34 235.15,-212.96 233.71,-210.48 232.46,-207.91 231.38,-205.26 230.49,-202.55 229.79,-199.78 229.27,-196.96 228.94,-194.11 228.8,-191.24 228.84,-188.35 229.08,-185.46 229.5,-182.59"/>
<text text-anchor="middle" x="297.62" y="-185.4" font-family="sans-serif" font-size="16.00">Logins</text>
</g>
<!-- AccountsCancellations&#45;&gt;Logins -->
<g id="edge1" class="edge">
<title>AccountsCancellations&#45;&gt;Logins</title>
<path fill="none" stroke="black" stroke-width="2" d="M271.52,-290.78C276.02,-273.45 281.24,-253.32 285.83,-235.64"/>
<text text-anchor="middle" x="356.12" y="-258.95" font-family="sans-serif" font-size="12.00"> &#160;&#160;&#160;&#160;&#160;&#160;&#160;&#160;&#160;&#160;&#160;&#160;&#160;&#160;&#160;&#160;&#160;&#160;&#160;&#160;&#160;&#160;&#160;&#160;&#160;&#160;&#160;&#160;&#160;&#160;&#160;&#160;&#160;&#160;&#160;&#160;&#160;&#160;&#160;</text>
<polygon fill="white" stroke="transparent" points="266.83,-225.64 266.83,-244.64 282.83,-244.64 282.83,-225.64 266.83,-225.64"/>
<polyline fill="none" stroke="black" points="282.83,-225.64 282.83,-244.64 "/>
<text text-anchor="start" x="269.83" y="-232.04" font-family="sans-serif" font-size="12.00">D</text>
<polygon fill="white" stroke="transparent" points="282.83,-225.64 282.83,-244.64 304.83,-244.64 304.83,-225.64 282.83,-225.64"/>
<polygon fill="none" stroke="black" points="282.83,-225.64 282.83,-244.64 304.83,-244.64 304.83,-225.64 282.83,-225.64"/>
<text text-anchor="start" x="285.83" y="-232.04" font-family="sans-serif" font-size="12.00">CF</text>
<polygon fill="white" stroke="transparent" points="264.52,-281.78 264.52,-298.78 278.52,-298.78 278.52,-281.78 264.52,-281.78"/>
<text text-anchor="start" x="266.52" y="-287.18" font-family="sans-serif" font-size="12.00">U</text>
</g>
<!-- AccountsCreation -->
<g id="node3" class="node">
<title>AccountsCreation</title>
<polygon fill="none" stroke="black" stroke-width="2" points="900.91,-464.35 903.88,-467.04 906.5,-469.75 908.73,-472.47 910.59,-475.19 912.05,-477.91 913.11,-480.6 913.76,-483.27 913.99,-485.9 913.81,-488.48 913.21,-491 912.19,-493.46 910.76,-495.84 908.9,-498.14 906.64,-500.36 903.97,-502.48 900.9,-504.5 897.45,-506.42 893.62,-508.23 889.43,-509.93 884.88,-511.52 880.01,-512.99 874.81,-514.34 869.32,-515.58 863.54,-516.69 857.5,-517.68 851.23,-518.56 844.74,-519.32 838.05,-519.96 831.19,-520.49 824.19,-520.9 817.06,-521.21 809.84,-521.41 802.54,-521.5 795.19,-521.49 787.82,-521.39 780.45,-521.19 773.1,-520.9 765.8,-520.52 758.56,-520.05 751.43,-519.5 744.4,-518.88 737.51,-518.17 730.78,-517.4 724.22,-516.55 717.85,-515.63 711.69,-514.65 705.75,-513.6 700.06,-512.49 694.62,-511.32 689.44,-510.09 684.54,-508.8 679.93,-507.45 675.61,-506.05 671.59,-504.58 667.89,-503.07 664.5,-501.5 661.43,-499.88 658.68,-498.2 656.26,-496.48 654.17,-494.7 652.4,-492.88 650.97,-491 649.86,-489.09 649.07,-487.13 648.61,-485.12 648.47,-483.08 648.65,-481 649.13,-478.89 649.93,-476.75 651.03,-474.59 652.43,-472.41 654.13,-470.21 656.11,-467.99 658.38,-465.78 660.92,-463.56 663.72,-461.36 666.8,-459.17 670.12,-457 673.7,-454.86 677.52,-452.75 681.57,-450.69 685.85,-448.69 690.34,-446.74 695.05,-444.87 699.96,-443.07 705.06,-441.35 710.34,-439.74 715.8,-438.22 721.43,-436.81 727.2,-435.52 733.12,-434.35 739.17,-433.32 745.34,-432.42 751.62,-431.67 758,-431.06 764.45,-430.61 770.97,-430.31 777.55,-430.17 784.16,-430.2 790.8,-430.39 797.44,-430.74 804.08,-431.26 810.68,-431.94 817.24,-432.79 823.74,-433.8 830.16,-434.97 836.47,-436.29 842.67,-437.75 848.73,-439.37 854.63,-441.12 860.36,-443 865.89,-445 871.2,-447.11 876.29,-449.34 881.12,-451.66 885.69,-454.06 889.96,-456.55 893.94,-459.1 897.59,-461.7 900.91,-464.35"/>
<text text-anchor="middle" x="776.62" y="-475.07" font-family="sans-serif" font-size="16.00">AccountsCreation</text>
</g>
<!-- AccountsCreation&#45;&gt;AccountsCancellations -->
<g id="edge6" class="edge">
<title>AccountsCreation&#45;&gt;AccountsCancellations</title>
<path fill="none" stroke="black" stroke-width="2" d="M657.07,-467.03C550.01,-455.96 401.93,-436.89 348.62,-412.02 331.67,-404.11 315.54,-391.92 301.83,-379.53"/>
<text text-anchor="middle" x="404.62" y="-402.42" font-family="sans-serif" font-size="12.00">Customer/Supplier</text>
<polygon fill="white" stroke="transparent" points="294.83,-370.53 294.83,-387.53 308.83,-387.53 308.83,-370.53 294.83,-370.53"/>
<text text-anchor="start" x="296.83" y="-375.93" font-family="sans-serif" font-size="12.00">D</text>
<polygon fill="white" stroke="transparent" points="650.07,-458.03 650.07,-475.03 664.07,-475.03 664.07,-458.03 650.07,-458.03"/>
<text text-anchor="start" x="652.07" y="-463.43" font-family="sans-serif" font-size="12.00">U</text>
</g>
<!-- AccountsCreation&#45;&gt;Logins -->
<g id="edge2" class="edge">
<title>AccountsCreation&#45;&gt;Logins</title>
<path fill="none" stroke="black" stroke-width="2" d="M686.05,-448.49C643.4,-432.27 593.13,-409.59 552.62,-381.02 490.31,-337.08 500.39,-295.79 435.62,-255.55 411.97,-240.86 401.06,-248.87 375.62,-237.55 364.33,-232.53 352.68,-226.17 341.93,-219.76"/>
<text text-anchor="middle" x="608.62" y="-330.69" font-family="sans-serif" font-size="12.00">Customer/Supplier</text>
<polygon fill="white" stroke="transparent" points="334.93,-210.76 334.93,-227.76 348.93,-227.76 348.93,-210.76 334.93,-210.76"/>
<text text-anchor="start" x="336.93" y="-216.16" font-family="sans-serif" font-size="12.00">D</text>
<polygon fill="white" stroke="transparent" points="679.05,-439.49 679.05,-456.49 693.05,-456.49 693.05,-439.49 679.05,-439.49"/>
<text text-anchor="start" x="681.05" y="-444.89" font-family="sans-serif" font-size="12.00">U</text>
</g>
<!-- UserWallet -->
<g id="node4" class="node">
<title>UserWallet</title>
<polygon fill="none" stroke="black" stroke-width="2" points="735.32,-294.25 740.73,-292.94 746.21,-291.74 751.76,-290.66 757.34,-289.71 762.94,-288.89 768.53,-288.21 774.09,-287.66 779.61,-287.26 785.06,-287 790.43,-286.89 795.7,-286.93 800.85,-287.12 805.86,-287.45 810.73,-287.93 815.43,-288.56 819.96,-289.33 824.3,-290.24 828.45,-291.29 832.39,-292.48 836.13,-293.79 839.65,-295.23 842.95,-296.79 846.02,-298.47 848.86,-300.25 851.48,-302.14 853.87,-304.11 856.02,-306.18 857.95,-308.32 859.65,-310.54 861.13,-312.81 862.39,-315.15 863.42,-317.52 864.25,-319.94 864.87,-322.38 865.28,-324.84 865.49,-327.32 865.51,-329.8 865.34,-332.27 864.98,-334.73 864.44,-337.17 863.72,-339.58 862.83,-341.96 861.78,-344.29 860.56,-346.58 859.17,-348.81 857.63,-350.98 855.93,-353.08 854.08,-355.11 852.08,-357.06 849.93,-358.93 847.63,-360.72 845.18,-362.42 842.59,-364.02 839.86,-365.54 836.99,-366.96 833.97,-368.28 830.81,-369.49 827.52,-370.61 824.09,-371.63 820.53,-372.54 816.83,-373.35 813.01,-374.06 809.06,-374.67 805,-375.17 800.82,-375.57 796.52,-375.86 792.13,-376.06 787.64,-376.16 783.06,-376.16 778.4,-376.05 773.68,-375.86 768.89,-375.56 764.06,-375.18 759.2,-374.7 754.31,-374.12 749.42,-373.46 744.54,-372.71 739.68,-371.87 734.86,-370.94 730.09,-369.93 725.4,-368.84 720.81,-367.66 716.32,-366.41 711.96,-365.07 707.75,-363.66 703.7,-362.18 699.83,-360.62 696.16,-358.99 692.71,-357.3 689.49,-355.53 686.53,-353.71 683.82,-351.82 681.4,-349.88 679.27,-347.89 677.44,-345.85 675.93,-343.76 674.74,-341.62 673.89,-339.45 673.37,-337.25 673.2,-335.02 673.37,-332.77 673.9,-330.5 674.77,-328.22 675.99,-325.94 677.56,-323.66 679.47,-321.38 681.7,-319.12 684.27,-316.88 687.14,-314.67 690.32,-312.49 693.79,-310.36 697.54,-308.27 701.54,-306.24 705.79,-304.28 710.26,-302.39 714.94,-300.58 719.81,-298.85 724.84,-297.22 730.02,-295.68 735.32,-294.25"/>
<text text-anchor="middle" x="776.62" y="-329.99" font-family="sans-serif" font-size="16.00">UserWallet</text>
</g>
<!-- AccountsCreation&#45;&gt;UserWallet -->
<g id="edge3" class="edge">
<title>AccountsCreation&#45;&gt;UserWallet</title>
<path fill="none" stroke="black" stroke-width="2" d="M776.62,-429.83C776.62,-412.45 776.62,-393 776.62,-376.24"/>
<text text-anchor="middle" x="811.12" y="-402.42" font-family="sans-serif" font-size="12.00">Partnership</text>
</g>
<!-- Withdrawals -->
<g id="node6" class="node">
<title>Withdrawals</title>
<polygon fill="none" stroke="black" stroke-width="2" points="751.13,-4.8 757.34,-3.77 763.62,-2.85 769.93,-2.06 776.24,-1.39 782.55,-0.86 788.81,-0.46 795.01,-0.2 801.13,-0.07 807.14,-0.09 813.02,-0.24 818.76,-0.54 824.33,-0.98 829.72,-1.55 834.91,-2.27 839.88,-3.12 844.64,-4.1 849.16,-5.22 853.43,-6.46 857.45,-7.83 861.2,-9.31 864.69,-10.91 867.91,-12.62 870.86,-14.43 873.53,-16.33 875.93,-18.32 878.05,-20.4 879.91,-22.54 881.49,-24.76 882.81,-27.03 883.87,-29.36 884.68,-31.72 885.24,-34.13 885.56,-36.55 885.64,-39 885.49,-41.46 885.13,-43.91 884.55,-46.37 883.76,-48.8 882.77,-51.22 881.6,-53.61 880.23,-55.96 878.69,-58.26 876.97,-60.52 875.09,-62.72 873.04,-64.85 870.83,-66.92 868.47,-68.91 865.96,-70.83 863.31,-72.66 860.51,-74.41 857.57,-76.06 854.49,-77.62 851.28,-79.08 847.93,-80.44 844.45,-81.7 840.84,-82.86 837.1,-83.91 833.24,-84.85 829.25,-85.69 825.15,-86.42 820.92,-87.04 816.58,-87.55 812.13,-87.95 807.57,-88.25 802.91,-88.44 798.16,-88.52 793.32,-88.5 788.4,-88.37 783.41,-88.14 778.35,-87.81 773.24,-87.38 768.09,-86.86 762.92,-86.24 757.73,-85.52 752.54,-84.72 747.36,-83.82 742.21,-82.83 737.12,-81.76 732.08,-80.61 727.13,-79.38 722.28,-78.06 717.55,-76.68 712.96,-75.21 708.53,-73.68 704.27,-72.08 700.21,-70.41 696.37,-68.68 692.76,-66.89 689.41,-65.04 686.33,-63.14 683.53,-61.19 681.04,-59.19 678.86,-57.15 677.02,-55.08 675.52,-52.96 674.38,-50.82 673.6,-48.66 673.19,-46.47 673.16,-44.27 673.51,-42.05 674.24,-39.84 675.36,-37.62 676.87,-35.41 678.75,-33.21 681.01,-31.03 683.64,-28.87 686.63,-26.75 689.97,-24.66 693.64,-22.61 697.63,-20.62 701.93,-18.68 706.52,-16.8 711.38,-14.99 716.49,-13.26 721.83,-11.61 727.37,-10.05 733.09,-8.58 738.98,-7.22 745,-5.95 751.13,-4.8"/>
<text text-anchor="middle" x="786.62" y="-42.13" font-family="sans-serif" font-size="16.00">Withdrawals</text>
</g>
<!-- AccountsCreation&#45;&gt;Withdrawals -->
<g id="edge5" class="edge">
<title>AccountsCreation&#45;&gt;Withdrawals</title>
<path fill="none" stroke="black" stroke-width="2" d="M884.84,-453.49C1069.71,-407 1414.5,-296.26 1285.62,-140.86 1235.5,-80.42 1013.54,-58.62 883.14,-50.94"/>
<text text-anchor="middle" x="1354.62" y="-258.95" font-family="sans-serif" font-size="12.00">Customer/Supplier</text>
<polygon fill="white" stroke="transparent" points="876.14,-41.94 876.14,-58.94 890.14,-58.94 890.14,-41.94 876.14,-41.94"/>
<text text-anchor="start" x="878.14" y="-47.34" font-family="sans-serif" font-size="12.00">D</text>
<polygon fill="white" stroke="transparent" points="877.84,-444.49 877.84,-461.49 891.84,-461.49 891.84,-444.49 877.84,-444.49"/>
<text text-anchor="start" x="879.84" y="-449.89" font-family="sans-serif" font-size="12.00">U</text>
</g>
<!-- CreditBody -->
<g id="node9" class="node">
<title>CreditBody</title>
<polygon fill="none" stroke="black" stroke-width="2" points="1522.45,-335.05 1522.36,-337.94 1522.01,-340.8 1521.4,-343.63 1520.54,-346.42 1519.41,-349.15 1518.03,-351.81 1516.4,-354.4 1514.52,-356.9 1512.39,-359.31 1510.03,-361.61 1507.44,-363.8 1504.62,-365.87 1501.59,-367.81 1498.35,-369.63 1494.91,-371.3 1491.28,-372.84 1487.46,-374.23 1483.48,-375.48 1479.34,-376.57 1475.06,-377.52 1470.64,-378.32 1466.09,-378.97 1461.44,-379.47 1456.7,-379.82 1451.87,-380.03 1446.97,-380.1 1442.02,-380.04 1437.02,-379.84 1432,-379.51 1426.97,-379.06 1421.94,-378.49 1416.93,-377.81 1411.95,-377.02 1407.02,-376.13 1402.14,-375.15 1397.34,-374.07 1392.63,-372.92 1388.02,-371.68 1383.52,-370.37 1379.14,-369 1374.9,-367.57 1370.82,-366.08 1366.89,-364.54 1363.14,-362.96 1359.57,-361.33 1356.19,-359.66 1353.02,-357.96 1350.05,-356.24 1347.3,-354.48 1344.78,-352.7 1342.49,-350.89 1340.43,-349.07 1338.62,-347.23 1337.05,-345.37 1335.74,-343.5 1334.68,-341.62 1333.87,-339.72 1333.33,-337.82 1333.04,-335.9 1333.01,-333.98 1333.24,-332.05 1333.73,-330.12 1334.47,-328.18 1335.46,-326.24 1336.71,-324.3 1338.2,-322.36 1339.93,-320.42 1341.9,-318.5 1344.09,-316.58 1346.51,-314.68 1349.15,-312.79 1352,-310.92 1355.05,-309.08 1358.29,-307.26 1361.71,-305.49 1365.32,-303.75 1369.08,-302.05 1373,-300.41 1377.07,-298.83 1381.27,-297.3 1385.59,-295.85 1390.02,-294.48 1394.56,-293.19 1399.18,-291.99 1403.87,-290.88 1408.63,-289.88 1413.44,-289 1418.29,-288.22 1423.16,-287.57 1428.05,-287.05 1432.93,-286.67 1437.8,-286.42 1442.65,-286.32 1447.45,-286.36 1452.21,-286.55 1456.9,-286.9 1461.52,-287.41 1466.05,-288.07 1470.47,-288.88 1474.79,-289.86 1478.98,-290.99 1483.03,-292.28 1486.94,-293.71 1490.7,-295.3 1494.28,-297.03 1497.69,-298.9 1500.91,-300.9 1503.94,-303.02 1506.76,-305.27 1509.37,-307.62 1511.76,-310.08 1513.92,-312.63 1515.86,-315.26 1517.55,-317.96 1519,-320.73 1520.2,-323.54 1521.14,-326.39 1521.84,-329.27 1522.27,-332.16 1522.45,-335.05"/>
<text text-anchor="middle" x="1427.62" y="-329.99" font-family="sans-serif" font-size="16.00">CreditBody</text>
</g>
<!-- AccountsCreation&#45;&gt;CreditBody -->
<g id="edge4" class="edge">
<title>AccountsCreation&#45;&gt;CreditBody</title>
<path fill="none" stroke="black" stroke-width="2" d="M906.35,-469.46C1042.22,-459.35 1245.78,-440.16 1318.62,-412.02 1343.07,-402.58 1367.17,-386.42 1386.47,-371.32"/>
<text text-anchor="middle" x="1420.12" y="-402.42" font-family="sans-serif" font-size="12.00"> &#160;&#160;&#160;&#160;&#160;&#160;&#160;&#160;&#160;&#160;&#160;&#160;&#160;&#160;&#160;&#160;&#160;&#160;&#160;&#160;&#160;&#160;&#160;&#160;&#160;&#160;&#160;&#160;&#160;&#160;&#160;&#160;&#160;&#160;&#160;&#160;&#160;&#160;&#160;</text>
<polygon fill="white" stroke="transparent" points="1363.47,-361.32 1363.47,-380.32 1379.47,-380.32 1379.47,-361.32 1363.47,-361.32"/>
<polyline fill="none" stroke="black" points="1379.47,-361.32 1379.47,-380.32 "/>
<text text-anchor="start" x="1366.47" y="-367.72" font-family="sans-serif" font-size="12.00">D</text>
<polygon fill="white" stroke="transparent" points="1379.47,-361.32 1379.47,-380.32 1409.47,-380.32 1409.47,-361.32 1379.47,-361.32"/>
<polygon fill="none" stroke="black" points="1379.47,-361.32 1379.47,-380.32 1409.47,-380.32 1409.47,-361.32 1379.47,-361.32"/>
<text text-anchor="start" x="1382.47" y="-367.72" font-family="sans-serif" font-size="12.00">ACL</text>
<polygon fill="white" stroke="transparent" points="899.35,-460.46 899.35,-477.46 913.35,-477.46 913.35,-460.46 899.35,-460.46"/>
<text text-anchor="start" x="901.35" y="-465.86" font-family="sans-serif" font-size="12.00">U</text>
</g>
<!-- NftTransaction -->
<g id="node5" class="node">
<title>NftTransaction</title>
<polygon fill="none" stroke="black" stroke-width="2" points="514.25,-233.22 506.87,-233.43 499.52,-233.52 492.22,-233.48 485.01,-233.32 477.91,-233.04 470.96,-232.63 464.18,-232.1 457.59,-231.45 451.22,-230.68 445.09,-229.78 439.23,-228.77 433.64,-227.65 428.36,-226.41 423.38,-225.07 418.74,-223.62 414.44,-222.08 410.48,-220.43 406.89,-218.7 403.65,-216.88 400.79,-214.97 398.29,-213 396.16,-210.95 394.39,-208.84 392.99,-206.67 391.95,-204.46 391.26,-202.19 390.92,-199.9 390.9,-197.57 391.22,-195.21 391.85,-192.85 392.78,-190.47 394,-188.09 395.49,-185.71 397.25,-183.35 399.26,-181.01 401.51,-178.69 403.97,-176.41 406.65,-174.17 409.52,-171.97 412.57,-169.82 415.79,-167.74 419.17,-165.72 422.7,-163.77 426.36,-161.89 430.15,-160.1 434.05,-158.39 438.06,-156.77 442.17,-155.25 446.38,-153.82 450.67,-152.5 455.04,-151.28 459.48,-150.17 464,-149.17 468.58,-148.28 473.22,-147.51 477.93,-146.86 482.69,-146.32 487.5,-145.9 492.37,-145.6 497.28,-145.42 502.23,-145.36 507.23,-145.41 512.26,-145.59 517.32,-145.88 522.41,-146.29 527.52,-146.81 532.64,-147.44 537.77,-148.19 542.9,-149.04 548.02,-149.99 553.12,-151.05 558.19,-152.2 563.21,-153.45 568.19,-154.8 573.09,-156.23 577.91,-157.74 582.63,-159.34 587.23,-161.01 591.71,-162.76 596.03,-164.57 600.19,-166.44 604.17,-168.38 607.94,-170.36 611.49,-172.4 614.79,-174.48 617.84,-176.59 620.61,-178.74 623.09,-180.92 625.26,-183.12 627.1,-185.33 628.59,-187.56 629.73,-189.8 630.5,-192.03 630.89,-194.26 630.89,-196.48 630.49,-198.68 629.68,-200.86 628.46,-203.02 626.83,-205.14 624.79,-207.22 622.33,-209.26 619.47,-211.25 616.2,-213.18 612.54,-215.06 608.5,-216.87 604.08,-218.61 599.3,-220.28 594.18,-221.86 588.74,-223.36 582.99,-224.78 576.96,-226.1 570.67,-227.32 564.15,-228.44 557.42,-229.46 550.51,-230.37 543.44,-231.17 536.25,-231.86 528.97,-232.43 521.63,-232.89 514.25,-233.22"/>
<text text-anchor="middle" x="507.62" y="-185.4" font-family="sans-serif" font-size="16.00">NftTransaction</text>
</g>
<!-- UserWallet&#45;&gt;NftTransaction -->
<g id="edge7" class="edge">
<title>UserWallet&#45;&gt;NftTransaction</title>
<path fill="none" stroke="black" stroke-width="2" d="M692.01,-311.23C660.26,-303.28 623.83,-294.32 590.62,-286.55 554.29,-278.05 532.19,-297.48 508.62,-268.55 500.71,-258.85 498.36,-246 498.59,-233.52"/>
<text text-anchor="middle" x="584.12" y="-258.95" font-family="sans-serif" font-size="12.00"> &#160;&#160;&#160;&#160;&#160;&#160;&#160;&#160;&#160;&#160;&#160;&#160;&#160;&#160;&#160;&#160;&#160;&#160;&#160;&#160;&#160;&#160;&#160;&#160;&#160;&#160;&#160;&#160;&#160;&#160;&#160;&#160;&#160;&#160;&#160;&#160;&#160;&#160;&#160;</text>
<polygon fill="white" stroke="transparent" points="491.59,-224.52 491.59,-241.52 505.59,-241.52 505.59,-224.52 491.59,-224.52"/>
<text text-anchor="start" x="493.59" y="-229.92" font-family="sans-serif" font-size="12.00">D</text>
<polygon fill="white" stroke="transparent" points="668.01,-301.23 668.01,-320.23 684.01,-320.23 684.01,-301.23 668.01,-301.23"/>
<polyline fill="none" stroke="black" points="684.01,-301.23 684.01,-320.23 "/>
<text text-anchor="start" x="671.01" y="-307.63" font-family="sans-serif" font-size="12.00">U</text>
<polygon fill="white" stroke="transparent" points="684.01,-301.23 684.01,-320.23 717.01,-320.23 717.01,-301.23 684.01,-301.23"/>
<polygon fill="none" stroke="black" points="684.01,-301.23 684.01,-320.23 717.01,-320.23 717.01,-301.23 684.01,-301.23"/>
<text text-anchor="start" x="687.01" y="-307.63" font-family="sans-serif" font-size="12.00">OHS</text>
</g>
<!-- UserWallet&#45;&gt;Withdrawals -->
<g id="edge10" class="edge">
<title>UserWallet&#45;&gt;Withdrawals</title>
<path fill="none" stroke="black" stroke-width="2" d="M723.92,-297.4C704.98,-281.56 685.79,-261.12 675.62,-237.55 658.59,-198.09 657.54,-179.84 675.62,-140.86 687.04,-116.24 708.44,-95.73 729.43,-80.23"/>
<text text-anchor="middle" x="731.62" y="-186.1" font-family="sans-serif" font-size="12.00">Customer/Supplier</text>
<polygon fill="white" stroke="transparent" points="722.43,-71.23 722.43,-88.23 736.43,-88.23 736.43,-71.23 722.43,-71.23"/>
<text text-anchor="start" x="724.43" y="-76.63" font-family="sans-serif" font-size="12.00">D</text>
<polygon fill="white" stroke="transparent" points="716.92,-288.4 716.92,-305.4 730.92,-305.4 730.92,-288.4 716.92,-288.4"/>
<text text-anchor="start" x="718.92" y="-293.8" font-family="sans-serif" font-size="12.00">U</text>
</g>
<!-- Transactions -->
<g id="node7" class="node">
<title>Transactions</title>
<polygon fill="none" stroke="black" stroke-width="2" points="888.6,-232.32 881.97,-231.84 875.44,-231.23 869.02,-230.51 862.75,-229.69 856.65,-228.75 850.75,-227.7 845.07,-226.55 839.63,-225.31 834.44,-223.96 829.54,-222.53 824.94,-221 820.65,-219.39 816.69,-217.7 813.06,-215.94 809.78,-214.11 806.86,-212.21 804.3,-210.25 802.11,-208.24 800.29,-206.18 798.83,-204.08 797.74,-201.93 797.02,-199.76 796.66,-197.55 796.65,-195.33 796.98,-193.09 797.65,-190.84 798.64,-188.59 799.95,-186.34 801.56,-184.1 803.45,-181.87 805.61,-179.66 808.03,-177.48 810.69,-175.33 813.58,-173.21 816.68,-171.14 819.96,-169.11 823.43,-167.14 827.06,-165.22 830.83,-163.37 834.73,-161.59 838.76,-159.87 842.88,-158.24 847.09,-156.69 851.38,-155.22 855.73,-153.84 860.14,-152.56 864.59,-151.37 869.08,-150.28 873.59,-149.3 878.12,-148.42 882.67,-147.66 887.22,-147 891.76,-146.46 896.31,-146.03 900.84,-145.72 905.36,-145.53 909.86,-145.46 914.34,-145.51 918.8,-145.67 923.24,-145.96 927.64,-146.36 932.01,-146.89 936.35,-147.53 940.65,-148.28 944.91,-149.15 949.12,-150.13 953.28,-151.23 957.39,-152.42 961.43,-153.73 965.41,-155.13 969.31,-156.63 973.13,-158.22 976.85,-159.9 980.48,-161.66 983.99,-163.5 987.39,-165.41 990.65,-167.4 993.77,-169.44 996.73,-171.55 999.52,-173.7 1002.13,-175.9 1004.54,-178.14 1006.74,-180.41 1008.73,-182.71 1010.47,-185.03 1011.96,-187.36 1013.19,-189.69 1014.15,-192.02 1014.82,-194.35 1015.19,-196.66 1015.25,-198.96 1014.99,-201.22 1014.41,-203.45 1013.49,-205.64 1012.23,-207.78 1010.64,-209.87 1008.69,-211.9 1006.4,-213.86 1003.77,-215.76 1000.79,-217.58 997.47,-219.32 993.82,-220.97 989.84,-222.53 985.56,-224 980.96,-225.37 976.08,-226.64 970.93,-227.8 965.52,-228.85 959.87,-229.79 954,-230.61 947.93,-231.32 941.7,-231.92 935.31,-232.39 928.8,-232.74 922.18,-232.98 915.5,-233.09 908.77,-233.08 902.03,-232.94 895.3,-232.69 888.6,-232.32"/>
<text text-anchor="middle" x="907.62" y="-185.4" font-family="sans-serif" font-size="16.00">Transactions</text>
</g>
<!-- UserWallet&#45;&gt;Transactions -->
<g id="edge8" class="edge">
<title>UserWallet&#45;&gt;Transactions</title>
<path fill="none" stroke="black" stroke-width="2" d="M816.49,-288.57C826.31,-277.75 836.82,-266.21 846.62,-255.55 853.97,-247.56 861.87,-239.05 869.45,-230.9"/>
<text text-anchor="middle" x="922.12" y="-258.95" font-family="sans-serif" font-size="12.00"> &#160;&#160;&#160;&#160;&#160;&#160;&#160;&#160;&#160;&#160;&#160;&#160;&#160;&#160;&#160;&#160;&#160;&#160;&#160;&#160;&#160;&#160;&#160;&#160;&#160;&#160;&#160;&#160;&#160;&#160;&#160;&#160;&#160;&#160;&#160;&#160;&#160;&#160;&#160;</text>
<polygon fill="white" stroke="transparent" points="862.45,-221.9 862.45,-238.9 876.45,-238.9 876.45,-221.9 862.45,-221.9"/>
<text text-anchor="start" x="864.45" y="-227.3" font-family="sans-serif" font-size="12.00">D</text>
<polygon fill="white" stroke="transparent" points="792.49,-278.57 792.49,-297.57 808.49,-297.57 808.49,-278.57 792.49,-278.57"/>
<polyline fill="none" stroke="black" points="808.49,-278.57 808.49,-297.57 "/>
<text text-anchor="start" x="795.49" y="-284.97" font-family="sans-serif" font-size="12.00">U</text>
<polygon fill="white" stroke="transparent" points="808.49,-278.57 808.49,-297.57 841.49,-297.57 841.49,-278.57 808.49,-278.57"/>
<polygon fill="none" stroke="black" points="808.49,-278.57 808.49,-297.57 841.49,-297.57 841.49,-278.57 808.49,-278.57"/>
<text text-anchor="start" x="811.49" y="-284.97" font-family="sans-serif" font-size="12.00">OHS</text>
</g>
<!-- InternalWallet -->
<g id="node8" class="node">
<title>InternalWallet</title>
<polygon fill="none" stroke="black" stroke-width="2" points="1082.22,-156.84 1087.48,-154.88 1092.91,-153.02 1098.5,-151.28 1104.21,-149.65 1110.03,-148.14 1115.94,-146.76 1121.92,-145.52 1127.94,-144.42 1133.98,-143.47 1140.03,-142.67 1146.07,-142.02 1152.07,-141.53 1158.02,-141.19 1163.9,-141.02 1169.7,-141.01 1175.4,-141.16 1180.99,-141.46 1186.45,-141.93 1191.77,-142.55 1196.94,-143.32 1201.95,-144.24 1206.79,-145.3 1211.45,-146.5 1215.93,-147.83 1220.21,-149.29 1224.3,-150.87 1228.18,-152.56 1231.86,-154.35 1235.33,-156.24 1238.59,-158.22 1241.63,-160.29 1244.46,-162.42 1247.06,-164.62 1249.45,-166.87 1251.62,-169.17 1253.57,-171.5 1255.3,-173.86 1256.81,-176.24 1258.1,-178.64 1259.17,-181.04 1260.02,-183.43 1260.64,-185.81 1261.05,-188.18 1261.23,-190.52 1261.19,-192.82 1260.92,-195.09 1260.44,-197.32 1259.72,-199.5 1258.79,-201.62 1257.62,-203.68 1256.23,-205.69 1254.61,-207.63 1252.77,-209.5 1250.69,-211.3 1248.39,-213.02 1245.86,-214.67 1243.1,-216.24 1240.11,-217.74 1236.9,-219.15 1233.46,-220.49 1229.81,-221.74 1225.93,-222.91 1221.85,-224 1217.55,-225.01 1213.06,-225.93 1208.36,-226.77 1203.48,-227.53 1198.43,-228.21 1193.2,-228.8 1187.82,-229.31 1182.29,-229.73 1176.63,-230.07 1170.85,-230.33 1164.96,-230.5 1158.99,-230.59 1152.95,-230.59 1146.86,-230.51 1140.74,-230.34 1134.6,-230.08 1128.46,-229.73 1122.36,-229.3 1116.3,-228.77 1110.31,-228.16 1104.42,-227.45 1098.64,-226.65 1092.99,-225.76 1087.5,-224.77 1082.19,-223.7 1077.09,-222.53 1072.2,-221.26 1067.56,-219.91 1063.17,-218.46 1059.07,-216.92 1055.26,-215.3 1051.76,-213.58 1048.59,-211.78 1045.77,-209.9 1043.3,-207.95 1041.19,-205.91 1039.45,-203.81 1038.1,-201.64 1037.14,-199.4 1036.56,-197.11 1036.38,-194.78 1036.59,-192.39 1037.19,-189.97 1038.19,-187.53 1039.57,-185.06 1041.32,-182.57 1043.45,-180.08 1045.94,-177.6 1048.77,-175.12 1051.94,-172.67 1055.44,-170.24 1059.24,-167.86 1063.33,-165.52 1067.69,-163.24 1072.31,-161.03 1077.16,-158.89 1082.22,-156.84"/>
<text text-anchor="middle" x="1156.62" y="-185.4" font-family="sans-serif" font-size="16.00">InternalWallet</text>
</g>
<!-- UserWallet&#45;&gt;InternalWallet -->
<g id="edge9" class="edge">
<title>UserWallet&#45;&gt;InternalWallet</title>
<path fill="none" stroke="black" stroke-width="2" d="M860.67,-312.07C902.42,-300.85 953.29,-285.76 997.62,-268.55 1029.17,-256.3 1062.97,-240.11 1091.25,-225.63"/>
<text text-anchor="middle" x="1059.12" y="-258.95" font-family="sans-serif" font-size="12.00">Partnership</text>
</g>
<!-- NftTransaction&#45;&gt;Withdrawals -->
<g id="edge11" class="edge">
<title>NftTransaction&#45;&gt;Withdrawals</title>
<path fill="none" stroke="black" stroke-width="2" d="M517.6,-145.49C522.56,-132.44 529.89,-119.11 540.62,-109.86 577.94,-77.7 629.55,-61.62 675.87,-53.72"/>
<text text-anchor="middle" x="596.62" y="-113.26" font-family="sans-serif" font-size="12.00">Customer/Supplier</text>
<polygon fill="white" stroke="transparent" points="668.87,-44.72 668.87,-61.72 682.87,-61.72 682.87,-44.72 668.87,-44.72"/>
<text text-anchor="start" x="670.87" y="-50.12" font-family="sans-serif" font-size="12.00">D</text>
<polygon fill="white" stroke="transparent" points="510.6,-136.49 510.6,-153.49 524.6,-153.49 524.6,-136.49 510.6,-136.49"/>
<text text-anchor="start" x="512.6" y="-141.89" font-family="sans-serif" font-size="12.00">U</text>
</g>
<!-- Transactions&#45;&gt;Withdrawals -->
<g id="edge12" class="edge">
<title>Transactions&#45;&gt;Withdrawals</title>
<path fill="none" stroke="black" stroke-width="2" d="M873.91,-148.85C857.41,-129.58 837.57,-106.42 820.98,-87.05"/>
<text text-anchor="middle" x="907.62" y="-113.26" font-family="sans-serif" font-size="12.00">Customer/Supplier</text>
<polygon fill="white" stroke="transparent" points="813.98,-78.05 813.98,-95.05 827.98,-95.05 827.98,-78.05 813.98,-78.05"/>
<text text-anchor="start" x="815.98" y="-83.45" font-family="sans-serif" font-size="12.00">D</text>
<polygon fill="white" stroke="transparent" points="866.91,-139.85 866.91,-156.85 880.91,-156.85 880.91,-139.85 866.91,-139.85"/>
<text text-anchor="start" x="868.91" y="-145.25" font-family="sans-serif" font-size="12.00">U</text>
</g>
<!-- InternalWallet&#45;&gt;Withdrawals -->
<g id="edge13" class="edge">
<title>InternalWallet&#45;&gt;Withdrawals</title>
<path fill="none" stroke="black" stroke-width="2" d="M1082.97,-156.5C1048.18,-141.83 1005.96,-124.45 967.62,-109.86 933.73,-96.95 895.89,-83.63 863.6,-72.58"/>
<text text-anchor="middle" x="1055.62" y="-113.26" font-family="sans-serif" font-size="12.00">Customer/Supplier</text>
<polygon fill="white" stroke="transparent" points="856.6,-63.58 856.6,-80.58 870.6,-80.58 870.6,-63.58 856.6,-63.58"/>
<text text-anchor="start" x="858.6" y="-68.98" font-family="sans-serif" font-size="12.00">D</text>
<polygon fill="white" stroke="transparent" points="1075.97,-147.5 1075.97,-164.5 1089.97,-164.5 1089.97,-147.5 1075.97,-147.5"/>
<text text-anchor="start" x="1077.97" y="-152.9" font-family="sans-serif" font-size="12.00">U</text>
</g>
<!-- AccountsRequests -->
<g id="node10" class="node">
<title>AccountsRequests</title>
<polygon fill="none" stroke="black" stroke-width="2" points="648.49,-610.31 651.36,-607.6 654.56,-604.95 658.08,-602.37 661.92,-599.87 666.05,-597.46 670.47,-595.15 675.16,-592.94 680.11,-590.85 685.3,-588.89 690.71,-587.05 696.33,-585.36 702.14,-583.81 708.13,-582.41 714.28,-581.16 720.57,-580.07 726.98,-579.14 733.51,-578.37 740.12,-577.77 746.81,-577.32 753.56,-577.04 760.35,-576.92 767.16,-576.96 773.98,-577.15 780.79,-577.49 787.58,-577.98 794.33,-578.61 801.02,-579.38 807.64,-580.28 814.17,-581.3 820.61,-582.44 826.92,-583.7 833.11,-585.05 839.15,-586.5 845.03,-588.05 850.74,-589.67 856.27,-591.36 861.6,-593.13 866.71,-594.95 871.61,-596.82 876.27,-598.74 880.68,-600.69 884.83,-602.68 888.72,-604.69 892.33,-606.72 895.65,-608.76 898.67,-610.81 901.39,-612.86 903.79,-614.91 905.86,-616.96 907.61,-619 909.02,-621.03 910.09,-623.04 910.8,-625.03 911.17,-627 911.18,-628.95 910.83,-630.88 910.13,-632.78 909.06,-634.65 907.63,-636.5 905.84,-638.32 903.69,-640.1 901.18,-641.86 898.32,-643.58 895.12,-645.26 891.57,-646.91 887.7,-648.53 883.49,-650.1 878.98,-651.64 874.15,-653.13 869.04,-654.58 863.64,-655.99 857.98,-657.34 852.07,-658.64 845.92,-659.89 839.56,-661.08 832.99,-662.2 826.24,-663.26 819.33,-664.25 812.27,-665.17 805.1,-666 797.82,-666.75 790.46,-667.42 783.05,-667.99 775.61,-668.46 768.15,-668.83 760.71,-669.09 753.31,-669.25 745.96,-669.28 738.7,-669.2 731.54,-668.99 724.51,-668.66 717.63,-668.2 710.92,-667.61 704.41,-666.88 698.11,-666.02 692.04,-665.03 686.22,-663.89 680.68,-662.62 675.42,-661.22 670.46,-659.69 665.82,-658.03 661.52,-656.24 657.55,-654.32 653.95,-652.3 650.7,-650.15 647.83,-647.91 645.34,-645.56 643.24,-643.13 641.53,-640.61 640.21,-638.02 639.29,-635.36 638.76,-632.65 638.64,-629.9 638.9,-627.11 639.56,-624.3 640.6,-621.48 642.02,-618.66 643.81,-615.85 645.98,-613.06 648.49,-610.31"/>
<text text-anchor="middle" x="776.62" y="-621.22" font-family="sans-serif" font-size="16.00">AccountsRequests</text>
</g>
<!-- AccountsRequests&#45;&gt;AccountsCreation -->
<g id="edge14" class="edge">
<title>AccountsRequests&#45;&gt;AccountsCreation</title>
<path fill="none" stroke="black" stroke-width="2" d="M776.62,-577.22C776.62,-559.13 776.62,-538.61 776.62,-521.09"/>
<text text-anchor="middle" x="811.12" y="-549.12" font-family="sans-serif" font-size="12.00">Partnership</text>
</g>
<!-- NftCreation -->
<g id="node11" class="node">
<title>NftCreation</title>
<polygon fill="none" stroke="black" stroke-width="2" points="86.76,-146.27 92.88,-145.66 99.01,-145.18 105.13,-144.82 111.21,-144.59 117.24,-144.49 123.18,-144.51 129.02,-144.67 134.73,-144.96 140.3,-145.38 145.7,-145.93 150.92,-146.6 155.93,-147.41 160.73,-148.34 165.3,-149.39 169.63,-150.57 173.7,-151.86 177.5,-153.26 181.04,-154.77 184.3,-156.39 187.27,-158.11 189.96,-159.92 192.37,-161.82 194.48,-163.8 196.31,-165.85 197.85,-167.98 199.11,-170.17 200.1,-172.41 200.81,-174.7 201.26,-177.03 201.45,-179.39 201.39,-181.78 201.09,-184.19 200.55,-186.6 199.79,-189.02 198.82,-191.43 197.64,-193.83 196.26,-196.21 194.7,-198.56 192.96,-200.88 191.06,-203.15 188.99,-205.38 186.77,-207.55 184.41,-209.66 181.91,-211.7 179.28,-213.67 176.53,-215.56 173.66,-217.37 170.68,-219.09 167.59,-220.72 164.4,-222.25 161.11,-223.68 157.72,-225.01 154.24,-226.24 150.67,-227.36 147.02,-228.37 143.28,-229.26 139.45,-230.05 135.55,-230.72 131.57,-231.28 127.51,-231.72 123.38,-232.05 119.18,-232.26 114.92,-232.36 110.59,-232.34 106.21,-232.21 101.77,-231.98 97.29,-231.63 92.77,-231.18 88.22,-230.62 83.65,-229.95 79.06,-229.19 74.46,-228.32 69.88,-227.36 65.31,-226.31 60.77,-225.16 56.28,-223.93 51.84,-222.62 47.48,-221.22 43.21,-219.74 39.04,-218.19 34.99,-216.57 31.08,-214.89 27.32,-213.13 23.74,-211.32 20.34,-209.46 17.15,-207.54 14.18,-205.58 11.44,-203.57 8.96,-201.52 6.75,-199.44 4.83,-197.33 3.2,-195.19 1.88,-193.04 0.88,-190.86 0.21,-188.68 -0.12,-186.49 -0.1,-184.3 0.27,-182.12 0.99,-179.95 2.07,-177.79 3.51,-175.65 5.31,-173.54 7.46,-171.46 9.96,-169.42 12.8,-167.42 15.97,-165.47 19.47,-163.57 23.27,-161.74 27.38,-159.97 31.76,-158.27 36.41,-156.64 41.31,-155.1 46.43,-153.65 51.75,-152.28 57.27,-151.01 62.94,-149.85 68.75,-148.78 74.67,-147.83 80.68,-146.99 86.76,-146.27"/>
<text text-anchor="middle" x="105.62" y="-185.4" font-family="sans-serif" font-size="16.00">NftCreation</text>
</g>
<!-- NftCreation&#45;&gt;Withdrawals -->
<g id="edge15" class="edge">
<title>NftCreation&#45;&gt;Withdrawals</title>
<path fill="none" stroke="black" stroke-width="2" d="M180.17,-154.39C193.14,-149.33 206.64,-144.57 219.62,-140.86 376.21,-96.01 563.66,-70.17 678.93,-57.32"/>
<text text-anchor="middle" x="398.62" y="-113.26" font-family="sans-serif" font-size="12.00">Customer/Supplier</text>
<polygon fill="white" stroke="transparent" points="671.93,-48.32 671.93,-65.32 685.93,-65.32 685.93,-48.32 671.93,-48.32"/>
<text text-anchor="start" x="673.93" y="-53.72" font-family="sans-serif" font-size="12.00">D</text>
<polygon fill="white" stroke="transparent" points="173.17,-145.39 173.17,-162.39 187.17,-162.39 187.17,-145.39 173.17,-145.39"/>
<text text-anchor="start" x="175.17" y="-150.79" font-family="sans-serif" font-size="12.00">U</text>
</g>
</g>
</svg>
