<svg width="2000px" height="818px"
 viewBox="0.00 0.00 1669.35 682.85" xmlns="http://www.w3.org/2000/svg" xmlns:xlink="http://www.w3.org/1999/xlink">
<g id="graph0" class="graph" transform="scale(1.0 1.0) rotate(0) translate(4 678.85)">
<title>ContextMapGraph</title>
<polygon fill="white" stroke="transparent" points="-4,4 -4,-678.85 1665.35,-678.85 1665.35,4 -4,4"/>
<!-- AccountsCancellations -->
<g id="node1" class="node">
<title>AccountsCancellations</title>
<polygon fill="none" stroke="black" stroke-width="2" points="318.04,-349.33 316.44,-352.18 314.41,-355 311.96,-357.76 309.1,-360.46 305.84,-363.09 302.19,-365.64 298.15,-368.1 293.74,-370.45 288.98,-372.7 283.86,-374.83 278.42,-376.83 272.67,-378.69 266.61,-380.42 260.27,-382.01 253.67,-383.45 246.82,-384.73 239.74,-385.86 232.46,-386.84 224.98,-387.66 217.33,-388.32 209.54,-388.82 201.61,-389.17 193.58,-389.36 185.46,-389.41 177.28,-389.3 169.05,-389.06 160.8,-388.67 152.55,-388.15 144.32,-387.5 136.13,-386.73 128.01,-385.84 119.97,-384.84 112.04,-383.74 104.24,-382.54 96.58,-381.24 89.1,-379.87 81.8,-378.42 74.7,-376.9 67.84,-375.31 61.21,-373.67 54.85,-371.98 48.77,-370.24 42.98,-368.46 37.51,-366.65 32.36,-364.8 27.55,-362.94 23.1,-361.05 19.01,-359.14 15.3,-357.23 11.98,-355.3 9.05,-353.36 6.54,-351.43 4.44,-349.49 2.76,-347.55 1.5,-345.61 0.68,-343.67 0.29,-341.74 0.34,-339.82 0.83,-337.91 1.75,-336 3.11,-334.1 4.9,-332.22 7.12,-330.35 9.76,-328.49 12.82,-326.65 16.29,-324.83 20.17,-323.03 24.43,-321.24 29.07,-319.49 34.08,-317.76 39.45,-316.06 45.15,-314.39 51.18,-312.77 57.52,-311.18 64.15,-309.64 71.05,-308.15 78.2,-306.72 85.59,-305.35 93.19,-304.04 100.98,-302.81 108.95,-301.65 117.05,-300.58 125.29,-299.59 133.62,-298.7 142.03,-297.91 150.5,-297.23 158.99,-296.66 167.48,-296.21 175.96,-295.89 184.39,-295.69 192.76,-295.62 201.03,-295.69 209.19,-295.9 217.21,-296.26 225.06,-296.76 232.73,-297.41 240.2,-298.2 247.44,-299.15 254.43,-300.25 261.15,-301.49 267.59,-302.88 273.72,-304.42 279.54,-306.1 285.01,-307.91 290.13,-309.86 294.89,-311.93 299.27,-314.12 303.26,-316.42 306.84,-318.82 310.02,-321.32 312.78,-323.91 315.11,-326.58 317.01,-329.31 318.48,-332.09 319.5,-334.92 320.09,-337.79 320.24,-340.67 319.94,-343.56 319.21,-346.46 318.04,-349.33"/>
<text text-anchor="middle" x="160.08" y="-338.14" font-family="sans-serif" font-size="16.00">AccountsCancellations</text>
</g>
<!-- Logins -->
<g id="node2" class="node">
<title>Logins</title>
<polygon fill="none" stroke="black" stroke-width="2" points="424.29,-188.87 425.01,-191.69 425.54,-194.51 425.87,-197.32 426.01,-200.11 425.94,-202.87 425.68,-205.58 425.21,-208.23 424.54,-210.82 423.67,-213.34 422.61,-215.78 421.35,-218.12 419.89,-220.37 418.25,-222.51 416.42,-224.54 414.41,-226.45 412.23,-228.24 409.88,-229.9 407.37,-231.44 404.7,-232.84 401.89,-234.11 398.94,-235.24 395.87,-236.23 392.67,-237.1 389.37,-237.82 385.97,-238.41 382.49,-238.88 378.92,-239.21 375.3,-239.41 371.62,-239.5 367.89,-239.46 364.14,-239.31 360.37,-239.04 356.59,-238.67 352.82,-238.2 349.06,-237.63 345.33,-236.97 341.65,-236.21 338.01,-235.38 334.43,-234.46 330.93,-233.48 327.51,-232.42 324.18,-231.29 320.96,-230.1 317.84,-228.86 314.84,-227.55 311.97,-226.2 309.24,-224.8 306.65,-223.35 304.2,-221.85 301.91,-220.32 299.78,-218.74 297.82,-217.13 296.02,-215.47 294.4,-213.79 292.95,-212.07 291.68,-210.31 290.59,-208.53 289.68,-206.71 288.96,-204.87 288.42,-202.99 288.06,-201.09 287.88,-199.17 287.89,-197.21 288.07,-195.24 288.44,-193.25 288.98,-191.24 289.69,-189.21 290.58,-187.17 291.63,-185.13 292.85,-183.07 294.22,-181.02 295.75,-178.97 297.44,-176.93 299.26,-174.9 301.23,-172.89 303.34,-170.9 305.58,-168.95 307.94,-167.03 310.42,-165.16 313.01,-163.34 315.71,-161.58 318.51,-159.88 321.41,-158.26 324.39,-156.72 327.45,-155.26 330.58,-153.91 333.79,-152.66 337.05,-151.51 340.36,-150.49 343.71,-149.59 347.1,-148.82 350.52,-148.19 353.96,-147.7 357.42,-147.36 360.87,-147.17 364.32,-147.13 367.77,-147.25 371.18,-147.54 374.58,-147.98 377.93,-148.59 381.23,-149.35 384.49,-150.28 387.67,-151.37 390.79,-152.62 393.82,-154.02 396.77,-155.57 399.62,-157.26 402.36,-159.1 404.99,-161.06 407.5,-163.15 409.87,-165.36 412.11,-167.67 414.21,-170.08 416.15,-172.59 417.94,-175.17 419.56,-177.81 421.01,-180.52 422.29,-183.27 423.38,-186.06 424.29,-188.87"/>
<text text-anchor="middle" x="356.08" y="-191.43" font-family="sans-serif" font-size="16.00">Logins</text>
</g>
<!-- AccountsCancellations&#45;&gt;Logins -->
<g id="edge1" class="edge">
<title>AccountsCancellations&#45;&gt;Logins</title>
<path fill="none" stroke="black" stroke-width="2" d="M169.21,-296.06C173.83,-283.45 180.74,-270.81 191.08,-262.08 220.91,-236.88 240.75,-258.4 277.08,-244.08 288.86,-239.43 300.9,-233.1 311.91,-226.56"/>
<text text-anchor="middle" x="266.58" y="-265.48" font-family="sans-serif" font-size="12.00"> &#160;&#160;&#160;&#160;&#160;&#160;&#160;&#160;&#160;&#160;&#160;&#160;&#160;&#160;&#160;&#160;&#160;&#160;&#160;&#160;&#160;&#160;&#160;&#160;&#160;&#160;&#160;&#160;&#160;&#160;&#160;&#160;&#160;&#160;&#160;&#160;&#160;&#160;&#160;</text>
<polygon fill="white" stroke="transparent" points="292.91,-216.56 292.91,-235.56 308.91,-235.56 308.91,-216.56 292.91,-216.56"/>
<polyline fill="none" stroke="black" points="308.91,-216.56 308.91,-235.56 "/>
<text text-anchor="start" x="295.91" y="-222.96" font-family="sans-serif" font-size="12.00">D</text>
<polygon fill="white" stroke="transparent" points="308.91,-216.56 308.91,-235.56 330.91,-235.56 330.91,-216.56 308.91,-216.56"/>
<polygon fill="none" stroke="black" points="308.91,-216.56 308.91,-235.56 330.91,-235.56 330.91,-216.56 308.91,-216.56"/>
<text text-anchor="start" x="311.91" y="-222.96" font-family="sans-serif" font-size="12.00">CF</text>
<polygon fill="white" stroke="transparent" points="162.21,-287.06 162.21,-304.06 176.21,-304.06 176.21,-287.06 162.21,-287.06"/>
<text text-anchor="start" x="164.21" y="-292.46" font-family="sans-serif" font-size="12.00">U</text>
</g>
<!-- AccountsCreation -->
<g id="node3" class="node">
<title>AccountsCreation</title>
<polygon fill="none" stroke="black" stroke-width="2" points="592.59,-443.2 600.7,-444.17 608.63,-445.25 616.36,-446.44 623.83,-447.73 631.04,-449.11 637.94,-450.58 644.51,-452.14 650.73,-453.78 656.56,-455.49 662,-457.28 667.01,-459.13 671.58,-461.04 675.7,-463 679.36,-465.02 682.54,-467.07 685.23,-469.17 687.44,-471.3 689.16,-473.45 690.38,-475.62 691.12,-477.82 691.37,-480.02 691.15,-482.22 690.45,-484.43 689.31,-486.63 687.72,-488.82 685.7,-490.99 683.27,-493.15 680.44,-495.28 677.25,-497.38 673.7,-499.44 669.81,-501.46 665.62,-503.44 661.14,-505.38 656.39,-507.25 651.4,-509.08 646.19,-510.84 640.79,-512.53 635.21,-514.16 629.48,-515.71 623.63,-517.18 617.66,-518.58 611.6,-519.89 605.48,-521.11 599.3,-522.25 593.08,-523.29 586.85,-524.23 580.61,-525.07 574.38,-525.81 568.18,-526.45 562,-526.98 555.87,-527.4 549.79,-527.71 543.77,-527.91 537.81,-527.99 531.93,-527.96 526.13,-527.82 520.41,-527.55 514.77,-527.17 509.23,-526.68 503.79,-526.07 498.44,-525.34 493.2,-524.5 488.06,-523.54 483.03,-522.47 478.11,-521.3 473.31,-520.01 468.62,-518.62 464.07,-517.13 459.65,-515.54 455.36,-513.86 451.22,-512.09 447.24,-510.23 443.41,-508.29 439.76,-506.28 436.28,-504.2 433,-502.05 429.92,-499.84 427.05,-497.59 424.42,-495.29 422.02,-492.95 419.88,-490.58 418,-488.18 416.41,-485.77 415.11,-483.35 414.12,-480.93 413.45,-478.51 413.11,-476.11 413.13,-473.73 413.5,-471.38 414.24,-469.07 415.36,-466.79 416.86,-464.57 418.76,-462.41 421.06,-460.31 423.77,-458.29 426.88,-456.34 430.39,-454.48 434.3,-452.7 438.62,-451.02 443.33,-449.44 448.42,-447.97 453.89,-446.61 459.72,-445.36 465.9,-444.22 472.41,-443.21 479.23,-442.32 486.34,-441.55 493.72,-440.92 501.34,-440.41 509.18,-440.03 517.2,-439.77 525.38,-439.65 533.69,-439.66 542.09,-439.79 550.55,-440.05 559.04,-440.44 567.53,-440.95 575.97,-441.58 584.34,-442.33 592.59,-443.2"/>
<text text-anchor="middle" x="546.08" y="-480.64" font-family="sans-serif" font-size="16.00">AccountsCreation</text>
</g>
<!-- AccountsCreation&#45;&gt;AccountsCancellations -->
<g id="edge3" class="edge">
<title>AccountsCreation&#45;&gt;AccountsCancellations</title>
<path fill="none" stroke="black" stroke-width="2" d="M412.95,-476.69C353.83,-469 285.29,-453.32 230.08,-421.8 215.93,-413.72 203.16,-401.73 192.52,-389.52"/>
<text text-anchor="middle" x="286.08" y="-412.2" font-family="sans-serif" font-size="12.00">Customer/Supplier</text>
<polygon fill="white" stroke="transparent" points="185.52,-380.52 185.52,-397.52 199.52,-397.52 199.52,-380.52 185.52,-380.52"/>
<text text-anchor="start" x="187.52" y="-385.92" font-family="sans-serif" font-size="12.00">D</text>
<polygon fill="white" stroke="transparent" points="405.95,-467.69 405.95,-484.69 419.95,-484.69 419.95,-467.69 405.95,-467.69"/>
<text text-anchor="start" x="407.95" y="-473.09" font-family="sans-serif" font-size="12.00">U</text>
</g>
<!-- AccountsCreation&#45;&gt;Logins -->
<g id="edge4" class="edge">
<title>AccountsCreation&#45;&gt;Logins</title>
<path fill="none" stroke="black" stroke-width="2" d="M438.15,-450.79C409.75,-436.89 382.28,-417.51 365.08,-390.8 335.52,-344.88 339.67,-279.46 346.77,-237.42"/>
<text text-anchor="middle" x="421.08" y="-338.84" font-family="sans-serif" font-size="12.00">Customer/Supplier</text>
<polygon fill="white" stroke="transparent" points="339.77,-228.42 339.77,-245.42 353.77,-245.42 353.77,-228.42 339.77,-228.42"/>
<text text-anchor="start" x="341.77" y="-233.82" font-family="sans-serif" font-size="12.00">D</text>
<polygon fill="white" stroke="transparent" points="431.15,-441.79 431.15,-458.79 445.15,-458.79 445.15,-441.79 431.15,-441.79"/>
<text text-anchor="start" x="433.15" y="-447.19" font-family="sans-serif" font-size="12.00">U</text>
</g>
<!-- CreditBody -->
<g id="node4" class="node">
<title>CreditBody</title>
<polygon fill="none" stroke="black" stroke-width="2" points="496.27,-357.18 494.03,-354.51 492.05,-351.81 490.34,-349.1 488.9,-346.39 487.75,-343.68 486.89,-341 486.32,-338.33 486.05,-335.71 486.08,-333.13 486.42,-330.6 487.06,-328.14 488,-325.74 489.25,-323.43 490.79,-321.2 492.63,-319.06 494.76,-317.02 497.17,-315.08 499.85,-313.25 502.8,-311.52 506.01,-309.91 509.46,-308.41 513.14,-307.03 517.05,-305.76 521.16,-304.62 525.46,-303.59 529.94,-302.68 534.58,-301.88 539.36,-301.2 544.27,-300.63 549.29,-300.18 554.4,-299.83 559.59,-299.59 564.83,-299.45 570.12,-299.42 575.42,-299.48 580.73,-299.64 586.02,-299.89 591.29,-300.22 596.5,-300.65 601.66,-301.15 606.73,-301.74 611.71,-302.4 616.58,-303.14 621.33,-303.95 625.94,-304.83 630.41,-305.78 634.71,-306.79 638.85,-307.87 642.81,-309.01 646.58,-310.21 650.15,-311.47 653.52,-312.79 656.67,-314.17 659.61,-315.61 662.34,-317.1 664.83,-318.65 667.1,-320.26 669.14,-321.92 670.94,-323.63 672.51,-325.39 673.85,-327.21 674.96,-329.07 675.83,-330.98 676.47,-332.94 676.87,-334.94 677.05,-336.98 677,-339.06 676.73,-341.17 676.24,-343.32 675.53,-345.49 674.6,-347.68 673.47,-349.89 672.13,-352.11 670.58,-354.34 668.84,-356.57 666.9,-358.79 664.78,-361 662.47,-363.19 659.98,-365.35 657.31,-367.48 654.48,-369.56 651.48,-371.59 648.32,-373.57 645,-375.47 641.54,-377.3 637.94,-379.04 634.2,-380.69 630.34,-382.24 626.35,-383.68 622.24,-385 618.03,-386.2 613.72,-387.27 609.32,-388.21 604.83,-389 600.27,-389.64 595.65,-390.13 590.97,-390.47 586.25,-390.64 581.49,-390.66 576.71,-390.51 571.92,-390.19 567.13,-389.71 562.36,-389.06 557.61,-388.25 552.9,-387.28 548.25,-386.15 543.65,-384.87 539.14,-383.44 534.73,-381.86 530.42,-380.15 526.23,-378.3 522.18,-376.33 518.27,-374.24 514.54,-372.05 510.97,-369.76 507.6,-367.38 504.43,-364.92 501.48,-362.39 498.75,-359.81 496.27,-357.18"/>
<text text-anchor="middle" x="585.08" y="-338.14" font-family="sans-serif" font-size="16.00">CreditBody</text>
</g>
<!-- AccountsCreation&#45;&gt;CreditBody -->
<g id="edge2" class="edge">
<title>AccountsCreation&#45;&gt;CreditBody</title>
<path fill="none" stroke="black" stroke-width="2" d="M542.97,-439.5C543.26,-429.28 544.4,-418.54 547.08,-408.8 549,-401.8 551.86,-394.76 555.15,-388.04"/>
<text text-anchor="middle" x="622.58" y="-412.2" font-family="sans-serif" font-size="12.00"> &#160;&#160;&#160;&#160;&#160;&#160;&#160;&#160;&#160;&#160;&#160;&#160;&#160;&#160;&#160;&#160;&#160;&#160;&#160;&#160;&#160;&#160;&#160;&#160;&#160;&#160;&#160;&#160;&#160;&#160;&#160;&#160;&#160;&#160;&#160;&#160;&#160;&#160;&#160;</text>
<polygon fill="white" stroke="transparent" points="532.15,-378.04 532.15,-397.04 548.15,-397.04 548.15,-378.04 532.15,-378.04"/>
<polyline fill="none" stroke="black" points="548.15,-378.04 548.15,-397.04 "/>
<text text-anchor="start" x="535.15" y="-384.44" font-family="sans-serif" font-size="12.00">D</text>
<polygon fill="white" stroke="transparent" points="548.15,-378.04 548.15,-397.04 578.15,-397.04 578.15,-378.04 548.15,-378.04"/>
<polygon fill="none" stroke="black" points="548.15,-378.04 548.15,-397.04 578.15,-397.04 578.15,-378.04 548.15,-378.04"/>
<text text-anchor="start" x="551.15" y="-384.44" font-family="sans-serif" font-size="12.00">ACL</text>
<polygon fill="white" stroke="transparent" points="535.97,-430.5 535.97,-447.5 549.97,-447.5 549.97,-430.5 535.97,-430.5"/>
<text text-anchor="start" x="537.97" y="-435.9" font-family="sans-serif" font-size="12.00">U</text>
</g>
<!-- Withdrawals -->
<g id="node5" class="node">
<title>Withdrawals</title>
<polygon fill="none" stroke="black" stroke-width="2" points="906.03,-67.78 903.24,-70.39 900.21,-72.94 896.95,-75.41 893.48,-77.79 889.81,-80.06 885.95,-82.24 881.91,-84.29 877.72,-86.21 873.37,-88.01 868.89,-89.66 864.28,-91.17 859.57,-92.53 854.77,-93.73 849.88,-94.77 844.92,-95.65 839.91,-96.36 834.86,-96.91 829.78,-97.3 824.68,-97.52 819.58,-97.57 814.49,-97.46 809.42,-97.19 804.38,-96.77 799.38,-96.2 794.44,-95.48 789.56,-94.62 784.76,-93.62 780.04,-92.49 775.42,-91.24 770.9,-89.88 766.5,-88.41 762.22,-86.84 758.07,-85.18 754.05,-83.44 750.19,-81.62 746.48,-79.73 742.94,-77.78 739.57,-75.78 736.38,-73.74 733.37,-71.66 730.56,-69.55 727.94,-67.42 725.53,-65.27 723.34,-63.12 721.36,-60.96 719.61,-58.8 718.08,-56.65 716.79,-54.51 715.74,-52.38 714.94,-50.28 714.38,-48.2 714.07,-46.15 714.02,-44.13 714.23,-42.14 714.7,-40.18 715.43,-38.26 716.42,-36.38 717.67,-34.54 719.19,-32.74 720.97,-30.98 723.01,-29.26 725.3,-27.59 727.85,-25.96 730.65,-24.37 733.7,-22.84 736.98,-21.35 740.5,-19.91 744.24,-18.53 748.2,-17.19 752.37,-15.91 756.73,-14.69 761.29,-13.52 766.01,-12.42 770.9,-11.38 775.94,-10.4 781.11,-9.5 786.4,-8.66 791.79,-7.9 797.28,-7.23 802.83,-6.63 808.44,-6.13 814.09,-5.71 819.75,-5.39 825.42,-5.17 831.07,-5.05 836.68,-5.04 842.24,-5.13 847.73,-5.35 853.12,-5.68 858.41,-6.12 863.57,-6.69 868.59,-7.39 873.45,-8.21 878.13,-9.16 882.62,-10.24 886.9,-11.44 890.96,-12.78 894.78,-14.23 898.36,-15.82 901.69,-17.52 904.74,-19.35 907.51,-21.29 910,-23.34 912.2,-25.5 914.1,-27.75 915.69,-30.1 916.97,-32.54 917.95,-35.05 918.61,-37.63 918.96,-40.27 919,-42.97 918.73,-45.7 918.16,-48.47 917.28,-51.26 916.11,-54.05 914.64,-56.84 912.9,-59.63 910.87,-62.38 908.58,-65.1 906.03,-67.78"/>
<text text-anchor="middle" x="814.08" y="-44.89" font-family="sans-serif" font-size="16.00">Withdrawals</text>
</g>
<!-- AccountsCreation&#45;&gt;Withdrawals -->
<g id="edge5" class="edge">
<title>AccountsCreation&#45;&gt;Withdrawals</title>
<path fill="none" stroke="black" stroke-width="2" d="M657.19,-455.56C673.03,-447.11 687.5,-436.11 698.08,-421.8 740.43,-364.49 693.24,-330.8 712.08,-262.08 728.84,-200.93 762.7,-135.97 786.8,-94.23"/>
<text text-anchor="middle" x="768.08" y="-265.48" font-family="sans-serif" font-size="12.00">Customer/Supplier</text>
<polygon fill="white" stroke="transparent" points="779.8,-85.23 779.8,-102.23 793.8,-102.23 793.8,-85.23 779.8,-85.23"/>
<text text-anchor="start" x="781.8" y="-90.63" font-family="sans-serif" font-size="12.00">D</text>
<polygon fill="white" stroke="transparent" points="650.19,-446.56 650.19,-463.56 664.19,-463.56 664.19,-446.56 650.19,-446.56"/>
<text text-anchor="start" x="652.19" y="-451.96" font-family="sans-serif" font-size="12.00">U</text>
</g>
<!-- UserWallet -->
<g id="node6" class="node">
<title>UserWallet</title>
<polygon fill="none" stroke="black" stroke-width="2" points="958.06,-347.59 957.19,-344.73 956.59,-341.88 956.25,-339.04 956.17,-336.23 956.36,-333.46 956.82,-330.73 957.54,-328.05 958.54,-325.45 959.8,-322.92 961.32,-320.48 963.11,-318.13 965.15,-315.88 967.44,-313.74 969.97,-311.71 972.75,-309.81 975.75,-308.03 978.97,-306.38 982.41,-304.86 986.05,-303.47 989.88,-302.23 993.88,-301.12 998.06,-300.15 1002.39,-299.32 1006.86,-298.62 1011.45,-298.06 1016.16,-297.64 1020.97,-297.34 1025.86,-297.17 1030.81,-297.13 1035.82,-297.21 1040.86,-297.41 1045.93,-297.71 1051,-298.13 1056.06,-298.65 1061.09,-299.27 1066.08,-299.98 1071.01,-300.77 1075.88,-301.66 1080.65,-302.62 1085.33,-303.66 1089.89,-304.76 1094.33,-305.93 1098.63,-307.17 1102.77,-308.46 1106.76,-309.81 1110.57,-311.2 1114.19,-312.65 1117.63,-314.14 1120.86,-315.67 1123.89,-317.25 1126.69,-318.86 1129.28,-320.51 1131.63,-322.19 1133.76,-323.91 1135.64,-325.66 1137.28,-327.45 1138.68,-329.26 1139.84,-331.1 1140.75,-332.97 1141.41,-334.86 1141.82,-336.78 1141.98,-338.73 1141.9,-340.7 1141.58,-342.68 1141.02,-344.69 1140.21,-346.71 1139.18,-348.74 1137.91,-350.79 1136.42,-352.84 1134.71,-354.9 1132.78,-356.95 1130.64,-359 1128.31,-361.04 1125.77,-363.07 1123.04,-365.07 1120.14,-367.05 1117.06,-369 1113.81,-370.9 1110.4,-372.76 1106.84,-374.57 1103.15,-376.32 1099.32,-377.99 1095.36,-379.6 1091.29,-381.12 1087.12,-382.55 1082.85,-383.88 1078.5,-385.11 1074.07,-386.22 1069.58,-387.22 1065.03,-388.09 1060.44,-388.82 1055.81,-389.42 1051.17,-389.88 1046.51,-390.18 1041.85,-390.34 1037.2,-390.34 1032.58,-390.18 1027.99,-389.85 1023.44,-389.37 1018.95,-388.72 1014.53,-387.91 1010.19,-386.93 1005.94,-385.8 1001.8,-384.51 997.77,-383.06 993.86,-381.47 990.09,-379.73 986.47,-377.85 983,-375.84 979.71,-373.7 976.59,-371.45 973.66,-369.09 970.93,-366.64 968.41,-364.09 966.1,-361.47 964.02,-358.78 962.16,-356.04 960.55,-353.25 959.18,-350.43 958.06,-347.59"/>
<text text-anchor="middle" x="1050.08" y="-338.14" font-family="sans-serif" font-size="16.00">UserWallet</text>
</g>
<!-- AccountsCreation&#45;&gt;UserWallet -->
<g id="edge6" class="edge">
<title>AccountsCreation&#45;&gt;UserWallet</title>
<path fill="none" stroke="black" stroke-width="2" d="M651.73,-453.99C746.41,-427.59 883.26,-389.44 969.4,-365.43"/>
<text text-anchor="middle" x="847.58" y="-412.2" font-family="sans-serif" font-size="12.00">Partnership</text>
</g>
<!-- UserWallet&#45;&gt;Withdrawals -->
<g id="edge10" class="edge">
<title>UserWallet&#45;&gt;Withdrawals</title>
<path fill="none" stroke="black" stroke-width="2" d="M963.38,-317.57C901.32,-298.88 825.59,-271.38 807.08,-244.08 777.71,-200.75 786.47,-138.63 797.95,-96.36"/>
<text text-anchor="middle" x="863.08" y="-192.13" font-family="sans-serif" font-size="12.00">Customer/Supplier</text>
<polygon fill="white" stroke="transparent" points="790.95,-87.36 790.95,-104.36 804.95,-104.36 804.95,-87.36 790.95,-87.36"/>
<text text-anchor="start" x="792.95" y="-92.76" font-family="sans-serif" font-size="12.00">D</text>
<polygon fill="white" stroke="transparent" points="956.38,-308.57 956.38,-325.57 970.38,-325.57 970.38,-308.57 956.38,-308.57"/>
<text text-anchor="start" x="958.38" y="-313.97" font-family="sans-serif" font-size="12.00">U</text>
</g>
<!-- NftTransaction -->
<g id="node7" class="node">
<title>NftTransaction</title>
<polygon fill="none" stroke="black" stroke-width="2" points="1146.94,-172.29 1150.89,-174.73 1154.54,-177.21 1157.89,-179.73 1160.92,-182.29 1163.61,-184.86 1165.95,-187.44 1167.94,-190.02 1169.55,-192.59 1170.79,-195.14 1171.64,-197.67 1172.11,-200.16 1172.18,-202.6 1171.86,-205 1171.14,-207.34 1170.04,-209.61 1168.55,-211.82 1166.67,-213.95 1164.42,-216 1161.81,-217.96 1158.83,-219.84 1155.52,-221.63 1151.87,-223.32 1147.91,-224.92 1143.64,-226.42 1139.1,-227.82 1134.28,-229.12 1129.22,-230.31 1123.94,-231.41 1118.45,-232.41 1112.77,-233.3 1106.94,-234.1 1100.96,-234.8 1094.86,-235.4 1088.67,-235.9 1082.4,-236.31 1076.09,-236.63 1069.74,-236.85 1063.39,-236.98 1057.05,-237.03 1050.74,-236.99 1044.49,-236.86 1038.31,-236.65 1032.22,-236.35 1026.24,-235.97 1020.38,-235.51 1014.66,-234.97 1009.1,-234.36 1003.71,-233.66 998.49,-232.88 993.47,-232.03 988.65,-231.1 984.04,-230.09 979.65,-229.01 975.48,-227.85 971.54,-226.62 967.84,-225.31 964.38,-223.93 961.17,-222.47 958.2,-220.94 955.48,-219.33 953.01,-217.66 950.8,-215.92 948.83,-214.11 947.11,-212.23 945.64,-210.29 944.43,-208.29 943.46,-206.23 942.73,-204.12 942.25,-201.96 942.01,-199.75 942.02,-197.5 942.26,-195.22 942.74,-192.9 943.45,-190.57 944.4,-188.21 945.58,-185.84 946.98,-183.47 948.62,-181.1 950.48,-178.75 952.56,-176.41 954.86,-174.1 957.39,-171.83 960.12,-169.6 963.08,-167.42 966.24,-165.31 969.62,-163.27 973.2,-161.31 976.98,-159.44 980.95,-157.66 985.12,-155.99 989.48,-154.43 994.02,-152.99 998.73,-151.67 1003.61,-150.49 1008.65,-149.45 1013.85,-148.56 1019.18,-147.81 1024.64,-147.22 1030.23,-146.78 1035.92,-146.51 1041.7,-146.39 1047.57,-146.44 1053.5,-146.66 1059.48,-147.04 1065.5,-147.58 1071.53,-148.28 1077.56,-149.14 1083.57,-150.15 1089.54,-151.32 1095.45,-152.63 1101.28,-154.08 1107.02,-155.67 1112.64,-157.38 1118.11,-159.22 1123.43,-161.16 1128.57,-163.22 1133.51,-165.36 1138.23,-167.6 1142.71,-169.91 1146.94,-172.29"/>
<text text-anchor="middle" x="1050.08" y="-191.43" font-family="sans-serif" font-size="16.00">NftTransaction</text>
</g>
<!-- UserWallet&#45;&gt;NftTransaction -->
<g id="edge7" class="edge">
<title>UserWallet&#45;&gt;NftTransaction</title>
<path fill="none" stroke="black" stroke-width="2" d="M1050.08,-297.91C1050.08,-278.75 1050.08,-256.28 1050.08,-237.35"/>
<text text-anchor="middle" x="1125.58" y="-265.48" font-family="sans-serif" font-size="12.00"> &#160;&#160;&#160;&#160;&#160;&#160;&#160;&#160;&#160;&#160;&#160;&#160;&#160;&#160;&#160;&#160;&#160;&#160;&#160;&#160;&#160;&#160;&#160;&#160;&#160;&#160;&#160;&#160;&#160;&#160;&#160;&#160;&#160;&#160;&#160;&#160;&#160;&#160;&#160;</text>
<polygon fill="white" stroke="transparent" points="1043.08,-228.35 1043.08,-245.35 1057.08,-245.35 1057.08,-228.35 1043.08,-228.35"/>
<text text-anchor="start" x="1045.08" y="-233.75" font-family="sans-serif" font-size="12.00">D</text>
<polygon fill="white" stroke="transparent" points="1026.08,-287.91 1026.08,-306.91 1042.08,-306.91 1042.08,-287.91 1026.08,-287.91"/>
<polyline fill="none" stroke="black" points="1042.08,-287.91 1042.08,-306.91 "/>
<text text-anchor="start" x="1029.08" y="-294.31" font-family="sans-serif" font-size="12.00">U</text>
<polygon fill="white" stroke="transparent" points="1042.08,-287.91 1042.08,-306.91 1075.08,-306.91 1075.08,-287.91 1042.08,-287.91"/>
<polygon fill="none" stroke="black" points="1042.08,-287.91 1042.08,-306.91 1075.08,-306.91 1075.08,-287.91 1042.08,-287.91"/>
<text text-anchor="start" x="1045.08" y="-294.31" font-family="sans-serif" font-size="12.00">OHS</text>
</g>
<!-- Transactions -->
<g id="node8" class="node">
<title>Transactions</title>
<polygon fill="none" stroke="black" stroke-width="2" points="1216.36,-220.02 1212.5,-217.68 1208.89,-215.28 1205.56,-212.83 1202.51,-210.35 1199.77,-207.85 1197.33,-205.33 1195.23,-202.8 1193.46,-200.28 1192.03,-197.76 1190.95,-195.27 1190.23,-192.8 1189.86,-190.36 1189.86,-187.97 1190.22,-185.63 1190.94,-183.34 1192.02,-181.12 1193.46,-178.96 1195.24,-176.88 1197.36,-174.87 1199.82,-172.94 1202.6,-171.09 1205.69,-169.33 1209.07,-167.66 1212.74,-166.09 1216.68,-164.6 1220.87,-163.21 1225.3,-161.92 1229.94,-160.72 1234.78,-159.61 1239.8,-158.61 1244.97,-157.7 1250.29,-156.88 1255.72,-156.16 1261.26,-155.53 1266.87,-155 1272.54,-154.56 1278.24,-154.2 1283.97,-153.94 1289.69,-153.77 1295.39,-153.68 1301.06,-153.68 1306.67,-153.77 1312.21,-153.94 1317.66,-154.2 1323,-154.53 1328.23,-154.95 1333.33,-155.46 1338.29,-156.04 1343.1,-156.71 1347.74,-157.45 1352.21,-158.28 1356.5,-159.19 1360.6,-160.18 1364.5,-161.25 1368.21,-162.4 1371.71,-163.62 1375.01,-164.93 1378.09,-166.32 1380.96,-167.78 1383.61,-169.32 1386.04,-170.94 1388.26,-172.62 1390.26,-174.39 1392.04,-176.22 1393.6,-178.12 1394.94,-180.09 1396.07,-182.11 1396.98,-184.2 1397.68,-186.34 1398.16,-188.53 1398.43,-190.77 1398.49,-193.05 1398.34,-195.36 1397.98,-197.71 1397.41,-200.07 1396.64,-202.45 1395.66,-204.84 1394.47,-207.23 1393.07,-209.61 1391.48,-211.98 1389.68,-214.32 1387.68,-216.64 1385.47,-218.91 1383.07,-221.13 1380.47,-223.3 1377.67,-225.4 1374.67,-227.42 1371.49,-229.37 1368.11,-231.21 1364.55,-232.96 1360.8,-234.6 1356.87,-236.13 1352.78,-237.53 1348.51,-238.81 1344.08,-239.94 1339.5,-240.94 1334.77,-241.79 1329.91,-242.49 1324.92,-243.04 1319.81,-243.43 1314.59,-243.66 1309.29,-243.73 1303.9,-243.63 1298.45,-243.38 1292.95,-242.96 1287.42,-242.39 1281.87,-241.65 1276.31,-240.77 1270.78,-239.73 1265.28,-238.54 1259.83,-237.21 1254.45,-235.75 1249.17,-234.16 1244,-232.44 1238.95,-230.61 1234.06,-228.68 1229.34,-226.64 1224.8,-224.51 1220.47,-222.3 1216.36,-220.02"/>
<text text-anchor="middle" x="1301.08" y="-191.43" font-family="sans-serif" font-size="16.00">Transactions</text>
</g>
<!-- UserWallet&#45;&gt;Transactions -->
<g id="edge8" class="edge">
<title>UserWallet&#45;&gt;Transactions</title>
<path fill="none" stroke="black" stroke-width="2" d="M1121.23,-315.67C1148.32,-304.79 1178.95,-290.91 1205.08,-275.08 1223.16,-264.12 1241.46,-250 1257.17,-236.74"/>
<text text-anchor="middle" x="1296.58" y="-265.48" font-family="sans-serif" font-size="12.00"> &#160;&#160;&#160;&#160;&#160;&#160;&#160;&#160;&#160;&#160;&#160;&#160;&#160;&#160;&#160;&#160;&#160;&#160;&#160;&#160;&#160;&#160;&#160;&#160;&#160;&#160;&#160;&#160;&#160;&#160;&#160;&#160;&#160;&#160;&#160;&#160;&#160;&#160;&#160;</text>
<polygon fill="white" stroke="transparent" points="1250.17,-227.74 1250.17,-244.74 1264.17,-244.74 1264.17,-227.74 1250.17,-227.74"/>
<text text-anchor="start" x="1252.17" y="-233.14" font-family="sans-serif" font-size="12.00">D</text>
<polygon fill="white" stroke="transparent" points="1097.23,-305.67 1097.23,-324.67 1113.23,-324.67 1113.23,-305.67 1097.23,-305.67"/>
<polyline fill="none" stroke="black" points="1113.23,-305.67 1113.23,-324.67 "/>
<text text-anchor="start" x="1100.23" y="-312.07" font-family="sans-serif" font-size="12.00">U</text>
<polygon fill="white" stroke="transparent" points="1113.23,-305.67 1113.23,-324.67 1146.23,-324.67 1146.23,-305.67 1113.23,-305.67"/>
<polygon fill="none" stroke="black" points="1113.23,-305.67 1113.23,-324.67 1146.23,-324.67 1146.23,-305.67 1113.23,-305.67"/>
<text text-anchor="start" x="1116.23" y="-312.07" font-family="sans-serif" font-size="12.00">OHS</text>
</g>
<!-- InternalWallet -->
<g id="node9" class="node">
<title>InternalWallet</title>
<polygon fill="none" stroke="black" stroke-width="2" points="1441.99,-209.74 1439.5,-207.06 1437.32,-204.35 1435.44,-201.63 1433.89,-198.9 1432.67,-196.19 1431.78,-193.49 1431.24,-190.83 1431.04,-188.2 1431.19,-185.62 1431.69,-183.1 1432.54,-180.64 1433.75,-178.26 1435.3,-175.96 1437.2,-173.74 1439.43,-171.62 1442,-169.6 1444.89,-167.68 1448.1,-165.86 1451.61,-164.16 1455.41,-162.58 1459.5,-161.11 1463.85,-159.75 1468.45,-158.52 1473.29,-157.41 1478.34,-156.41 1483.6,-155.54 1489.03,-154.78 1494.63,-154.14 1500.38,-153.61 1506.24,-153.19 1512.21,-152.89 1518.26,-152.69 1524.37,-152.6 1530.53,-152.6 1536.7,-152.71 1542.87,-152.91 1549.03,-153.2 1555.14,-153.58 1561.2,-154.05 1567.18,-154.59 1573.06,-155.22 1578.83,-155.92 1584.47,-156.7 1589.96,-157.55 1595.29,-158.46 1600.45,-159.45 1605.42,-160.49 1610.19,-161.6 1614.75,-162.78 1619.08,-164.01 1623.19,-165.3 1627.05,-166.65 1630.67,-168.05 1634.03,-169.51 1637.13,-171.03 1639.97,-172.6 1642.54,-174.22 1644.84,-175.89 1646.87,-177.62 1648.62,-179.4 1650.1,-181.22 1651.3,-183.09 1652.23,-185.01 1652.89,-186.97 1653.27,-188.97 1653.39,-191.02 1653.25,-193.09 1652.84,-195.2 1652.17,-197.34 1651.25,-199.51 1650.07,-201.69 1648.65,-203.89 1646.99,-206.1 1645.1,-208.32 1642.97,-210.53 1640.62,-212.74 1638.05,-214.93 1635.26,-217.1 1632.26,-219.24 1629.07,-221.34 1625.67,-223.4 1622.09,-225.41 1618.33,-227.36 1614.38,-229.23 1610.27,-231.03 1606,-232.74 1601.58,-234.36 1597.01,-235.88 1592.3,-237.29 1587.46,-238.58 1582.5,-239.74 1577.44,-240.78 1572.27,-241.68 1567.01,-242.43 1561.67,-243.04 1556.27,-243.49 1550.8,-243.79 1545.3,-243.93 1539.76,-243.9 1534.2,-243.71 1528.64,-243.36 1523.08,-242.84 1517.55,-242.15 1512.06,-241.31 1506.62,-240.3 1501.24,-239.13 1495.96,-237.81 1490.77,-236.34 1485.69,-234.73 1480.75,-232.98 1475.95,-231.1 1471.32,-229.1 1466.87,-226.98 1462.61,-224.76 1458.57,-222.44 1454.74,-220.03 1451.16,-217.55 1447.83,-215 1444.77,-212.4 1441.99,-209.74"/>
<text text-anchor="middle" x="1546.08" y="-191.43" font-family="sans-serif" font-size="16.00">InternalWallet</text>
</g>
<!-- UserWallet&#45;&gt;InternalWallet -->
<g id="edge9" class="edge">
<title>UserWallet&#45;&gt;InternalWallet</title>
<path fill="none" stroke="black" stroke-width="2" d="M1138.7,-328.8C1205.09,-318.34 1297.62,-300.8 1376.08,-275.08 1410.7,-263.72 1447.57,-247.21 1478.09,-232.23"/>
<text text-anchor="middle" x="1443.58" y="-265.48" font-family="sans-serif" font-size="12.00">Partnership</text>
</g>
<!-- NftTransaction&#45;&gt;Withdrawals -->
<g id="edge11" class="edge">
<title>NftTransaction&#45;&gt;Withdrawals</title>
<path fill="none" stroke="black" stroke-width="2" d="M986.52,-155.3C952.12,-134.23 909.81,-108.32 875.71,-87.43"/>
<text text-anchor="middle" x="995.08" y="-118.78" font-family="sans-serif" font-size="12.00">Customer/Supplier</text>
<polygon fill="white" stroke="transparent" points="868.71,-78.43 868.71,-95.43 882.71,-95.43 882.71,-78.43 868.71,-78.43"/>
<text text-anchor="start" x="870.71" y="-83.83" font-family="sans-serif" font-size="12.00">D</text>
<polygon fill="white" stroke="transparent" points="979.52,-146.3 979.52,-163.3 993.52,-163.3 993.52,-146.3 979.52,-146.3"/>
<text text-anchor="start" x="981.52" y="-151.7" font-family="sans-serif" font-size="12.00">U</text>
</g>
<!-- Transactions&#45;&gt;Withdrawals -->
<g id="edge12" class="edge">
<title>Transactions&#45;&gt;Withdrawals</title>
<path fill="none" stroke="black" stroke-width="2" d="M1224.45,-162.07C1210.15,-156.52 1195.24,-151.05 1181.08,-146.38 1087.84,-115.64 978.81,-87.92 903.96,-70.13"/>
<text text-anchor="middle" x="1177.08" y="-118.78" font-family="sans-serif" font-size="12.00">Customer/Supplier</text>
<polygon fill="white" stroke="transparent" points="896.96,-61.13 896.96,-78.13 910.96,-78.13 910.96,-61.13 896.96,-61.13"/>
<text text-anchor="start" x="898.96" y="-66.53" font-family="sans-serif" font-size="12.00">D</text>
<polygon fill="white" stroke="transparent" points="1217.45,-153.07 1217.45,-170.07 1231.45,-170.07 1231.45,-153.07 1217.45,-153.07"/>
<text text-anchor="start" x="1219.45" y="-158.47" font-family="sans-serif" font-size="12.00">U</text>
</g>
<!-- InternalWallet&#45;&gt;Withdrawals -->
<g id="edge13" class="edge">
<title>InternalWallet&#45;&gt;Withdrawals</title>
<path fill="none" stroke="black" stroke-width="2" d="M1463.13,-159.85C1449.24,-154.85 1434.87,-150.14 1421.08,-146.38 1245.68,-98.54 1034.89,-71.55 913.5,-58.85"/>
<text text-anchor="middle" x="1395.08" y="-118.78" font-family="sans-serif" font-size="12.00">Customer/Supplier</text>
<polygon fill="white" stroke="transparent" points="906.5,-49.85 906.5,-66.85 920.5,-66.85 920.5,-49.85 906.5,-49.85"/>
<text text-anchor="start" x="908.5" y="-55.25" font-family="sans-serif" font-size="12.00">D</text>
<polygon fill="white" stroke="transparent" points="1456.13,-150.85 1456.13,-167.85 1470.13,-167.85 1470.13,-150.85 1456.13,-150.85"/>
<text text-anchor="start" x="1458.13" y="-156.25" font-family="sans-serif" font-size="12.00">U</text>
</g>
<!-- AccountsRequests -->
<g id="node10" class="node">
<title>AccountsRequests</title>
<polygon fill="none" stroke="black" stroke-width="2" points="412.07,-633.59 410.5,-630.78 409.31,-627.96 408.5,-625.14 408.09,-622.35 408.07,-619.59 408.44,-616.88 409.22,-614.21 410.39,-611.61 411.97,-609.08 413.93,-606.63 416.29,-604.26 419.03,-602 422.15,-599.84 425.65,-597.78 429.5,-595.85 433.7,-594.03 438.24,-592.34 443.1,-590.77 448.28,-589.34 453.74,-588.04 459.49,-586.87 465.49,-585.84 471.73,-584.94 478.2,-584.18 484.86,-583.55 491.7,-583.05 498.7,-582.67 505.83,-582.43 513.08,-582.3 520.41,-582.3 527.81,-582.41 535.26,-582.63 542.72,-582.96 550.17,-583.39 557.6,-583.92 564.98,-584.55 572.28,-585.26 579.49,-586.05 586.58,-586.93 593.54,-587.88 600.33,-588.91 606.95,-590 613.36,-591.15 619.57,-592.36 625.54,-593.63 631.26,-594.96 636.73,-596.33 641.91,-597.76 646.8,-599.23 651.4,-600.74 655.68,-602.29 659.63,-603.89 663.26,-605.52 666.55,-607.19 669.5,-608.9 672.09,-610.64 674.34,-612.42 676.22,-614.23 677.75,-616.07 678.92,-617.94 679.73,-619.84 680.18,-621.77 680.27,-623.72 680.01,-625.7 679.41,-627.7 678.45,-629.72 677.15,-631.76 675.52,-633.81 673.56,-635.87 671.27,-637.94 668.67,-640.01 665.77,-642.08 662.57,-644.15 659.08,-646.2 655.3,-648.23 651.26,-650.25 646.97,-652.23 642.42,-654.18 637.64,-656.08 632.63,-657.93 627.4,-659.73 621.98,-661.46 616.37,-663.11 610.58,-664.69 604.63,-666.18 598.53,-667.57 592.29,-668.86 585.93,-670.04 579.47,-671.1 572.91,-672.04 566.27,-672.85 559.57,-673.52 552.82,-674.05 546.04,-674.43 539.24,-674.66 532.44,-674.73 525.66,-674.65 518.91,-674.4 512.21,-674 505.57,-673.43 499.02,-672.69 492.57,-671.8 486.23,-670.74 480.02,-669.53 473.97,-668.16 468.08,-666.64 462.38,-664.98 456.88,-663.17 451.6,-661.23 446.55,-659.17 441.75,-656.98 437.21,-654.69 432.95,-652.3 428.99,-649.81 425.33,-647.25 421.99,-644.61 418.99,-641.92 416.32,-639.18 414.02,-636.4 412.07,-633.59"/>
<text text-anchor="middle" x="546.08" y="-622.67" font-family="sans-serif" font-size="16.00">AccountsRequests</text>
</g>
<!-- AccountsRequests&#45;&gt;AccountsCreation -->
<g id="edge14" class="edge">
<title>AccountsRequests&#45;&gt;AccountsCreation</title>
<path fill="none" stroke="black" stroke-width="2" d="M546.08,-583.08C546.08,-565.69 546.08,-545.6 546.08,-528.17"/>
<text text-anchor="middle" x="580.58" y="-550.49" font-family="sans-serif" font-size="12.00">Partnership</text>
</g>
<!-- NftCreation -->
<g id="node11" class="node">
<title>NftCreation</title>
<polygon fill="none" stroke="black" stroke-width="2" points="242.05,-169.84 245.74,-172.15 249.19,-174.52 252.39,-176.94 255.32,-179.39 257.97,-181.87 260.33,-184.37 262.39,-186.88 264.14,-189.38 265.56,-191.89 266.66,-194.37 267.43,-196.83 267.86,-199.25 267.95,-201.64 267.71,-203.98 267.12,-206.27 266.2,-208.5 264.95,-210.67 263.37,-212.76 261.46,-214.78 259.25,-216.73 256.73,-218.59 253.92,-220.37 250.83,-222.06 247.47,-223.67 243.86,-225.18 240.01,-226.6 235.94,-227.92 231.66,-229.15 227.19,-230.29 222.55,-231.33 217.77,-232.28 212.85,-233.14 207.81,-233.9 202.68,-234.56 197.47,-235.14 192.21,-235.62 186.91,-236.02 181.59,-236.32 176.26,-236.54 170.95,-236.66 165.67,-236.71 160.45,-236.66 155.28,-236.53 150.19,-236.32 145.2,-236.02 140.31,-235.64 135.54,-235.18 130.9,-234.63 126.4,-234 122.05,-233.29 117.85,-232.5 113.82,-231.62 109.97,-230.67 106.29,-229.63 102.79,-228.51 99.48,-227.31 96.36,-226.03 93.44,-224.67 90.71,-223.23 88.19,-221.71 85.86,-220.12 83.73,-218.45 81.8,-216.7 80.07,-214.89 78.54,-213 77.22,-211.05 76.09,-209.03 75.16,-206.95 74.43,-204.82 73.9,-202.64 73.56,-200.4 73.42,-198.13 73.47,-195.82 73.72,-193.48 74.16,-191.11 74.79,-188.73 75.61,-186.34 76.63,-183.94 77.84,-181.55 79.23,-179.18 80.82,-176.82 82.6,-174.5 84.56,-172.21 86.72,-169.97 89.06,-167.79 91.59,-165.67 94.3,-163.63 97.2,-161.67 100.27,-159.8 103.52,-158.03 106.95,-156.36 110.55,-154.81 114.31,-153.38 118.24,-152.07 122.32,-150.9 126.55,-149.87 130.92,-148.99 135.43,-148.25 140.06,-147.67 144.8,-147.24 149.65,-146.97 154.59,-146.87 159.61,-146.92 164.69,-147.13 169.83,-147.51 175.01,-148.04 180.21,-148.73 185.42,-149.58 190.61,-150.57 195.78,-151.72 200.91,-153 205.97,-154.42 210.95,-155.97 215.84,-157.64 220.61,-159.43 225.24,-161.33 229.71,-163.33 234.02,-165.42 238.14,-167.59 242.05,-169.84"/>
<text text-anchor="middle" x="164.08" y="-191.43" font-family="sans-serif" font-size="16.00">NftCreation</text>
</g>
<!-- NftCreation&#45;&gt;Withdrawals -->
<g id="edge15" class="edge">
<title>NftCreation&#45;&gt;Withdrawals</title>
<path fill="none" stroke="black" stroke-width="2" d="M230.1,-163.38C245.3,-157.09 261.56,-151 277.08,-146.38 429.15,-101.11 612.12,-73.68 720.44,-60.13"/>
<text text-anchor="middle" x="449.08" y="-118.78" font-family="sans-serif" font-size="12.00">Customer/Supplier</text>
<polygon fill="white" stroke="transparent" points="713.44,-51.13 713.44,-68.13 727.44,-68.13 727.44,-51.13 713.44,-51.13"/>
<text text-anchor="start" x="715.44" y="-56.53" font-family="sans-serif" font-size="12.00">D</text>
<polygon fill="white" stroke="transparent" points="223.1,-154.38 223.1,-171.38 237.1,-171.38 237.1,-154.38 223.1,-154.38"/>
<text text-anchor="start" x="225.1" y="-159.78" font-family="sans-serif" font-size="12.00">U</text>
</g>
</g>
</svg>
